<?xml version="1.0" encoding="UTF-8" standalone="no"?>
<svg
   xmlns:dc="http://purl.org/dc/elements/1.1/"
   xmlns:cc="http://creativecommons.org/ns#"
   xmlns:rdf="http://www.w3.org/1999/02/22-rdf-syntax-ns#"
   xmlns:svg="http://www.w3.org/2000/svg"
   xmlns="http://www.w3.org/2000/svg"
   viewBox="0 0 1052.3625 744.09998"
   height="744.09998"
   width="1052.3625"
   xml:space="preserve"
   version="1.1"
   id="svg2"><metadata
     id="metadata8"><rdf:RDF><cc:Work
         rdf:about=""><dc:format>image/svg+xml</dc:format><dc:type
           rdf:resource="http://purl.org/dc/dcmitype/StillImage" /></cc:Work></rdf:RDF></metadata><defs
     id="defs6"><clipPath
       id="clipPath20"
       clipPathUnits="userSpaceOnUse"><path
         id="path22"
         d="m 0,595.28 841.89,0 L 841.89,0 0,0 0,595.28 Z" /></clipPath></defs><g
     transform="matrix(1.25,0,0,-1.25,0,744.1)"
     id="g10"><g
       transform="translate(429.0435,407.484)"
       id="g12"><path
         id="path14"
         style="fill:#1d1d1d;fill-opacity:1;fill-rule:nonzero;stroke:none"
         d="M 0,0 0,1.242 0,0 Z" /></g><g
       id="g16"><g
         clip-path="url(#clipPath20)"
         id="g18"><g
           transform="translate(177.019,368.029)"
           id="g24"><path
             id="path26"
             style="fill:#1d1d1d;fill-opacity:1;fill-rule:nonzero;stroke:none"
             d="m 0,0 -29.247,0 0,1.242 2.157,0 c 3.009,0 4.121,0.982 4.121,4.318 l 0,28.987 c 0,3.467 -1.045,4.906 -5.166,4.906 l -0.915,0 0,1.242 19.301,0 0,-1.242 -2.421,0 c -4.251,0 -5.369,-0.457 -5.369,-4.511 l 0,-30.167 c 0,-1.766 0.723,-2.421 2.619,-2.421 l 9.62,0 c 3.861,0 5.036,1.507 9.162,7.197 l 1.179,0 L 0,0 Z" /></g><g
           transform="translate(203.709,408.0715)"
           id="g28"><path
             id="path30"
             style="fill:#1d1d1d;fill-opacity:1;fill-rule:nonzero;stroke:none"
             d="m 0,0 c -11.521,0 -16.099,-10.731 -16.099,-18.579 0,-12.237 8.309,-20.875 18.843,-20.875 10.665,0 15.773,9.421 15.773,18.713 C 18.517,-8.57 10.794,0 0,0 m 1.372,-41.091 c -12.826,0 -23.619,8.247 -23.619,20.481 0,13.023 10.01,22.246 23.946,22.246 12.369,0 22.966,-8.439 22.966,-20.215 0,-13.22 -10.597,-22.512 -23.293,-22.512" /></g><g
           transform="translate(271.5239,367.5725)"
           id="g32"><path
             id="path34"
             style="fill:#1d1d1d;fill-opacity:1;fill-rule:nonzero;stroke:none"
             d="m 0,0 -33.893,35.462 0,-28.072 c 0,-4.708 1.05,-5.691 6.61,-5.691 l 0,-1.241 -15.179,0 0,1.241 0.26,0 c 4.058,0 5.367,1.378 5.367,4.387 l 0,32.188 c -1.506,1.049 -3.206,1.57 -5.498,1.637 l 0,1.242 10.274,0 30.817,-32.126 0,26.04 c 0,3.992 -1.175,4.714 -6.413,4.844 l 0,1.242 15.315,0 0,-1.242 c -4.911,0 -5.955,-0.852 -5.955,-3.404 L 1.705,0 0,0 Z" /></g><g
           transform="translate(293.9033,372.8718)"
           id="g36"><path
             id="path38"
             style="fill:#1d1d1d;fill-opacity:1;fill-rule:nonzero;stroke:none"
             d="m 0,0 c 0,-2.687 0.197,-3.602 5.363,-3.602 8.772,0 12.43,1.247 16.49,5.306 2.42,2.355 5.43,7.39 5.43,14.129 0,4.844 -1.372,10.208 -5.233,14.069 -3.009,3.009 -7.655,5.3 -16.817,5.3 -2.681,0 -4.448,-0.197 -5.233,-0.26 L 0,0 Z m -5.43,29.314 c 0,4.251 -1.112,5.296 -4.974,5.296 l -1.31,0 0,1.242 c 2.422,0.135 5.629,0.265 9.225,0.395 3.602,0.134 7.592,0.197 10.996,0.197 17.269,0 24.924,-8.767 24.924,-19.565 C 33.431,7 25.776,-4.844 9.224,-4.844 l -20.938,0 0,1.242 1.113,0 c 3.534,0 5.171,0.983 5.171,4.776 l 0,28.14 z" /></g><g
           transform="translate(353.5698,408.0715)"
           id="g40"><path
             id="path42"
             style="fill:#1d1d1d;fill-opacity:1;fill-rule:nonzero;stroke:none"
             d="m 0,0 c -11.521,0 -16.099,-10.731 -16.099,-18.579 0,-12.237 8.315,-20.875 18.843,-20.875 10.668,0 15.772,9.421 15.772,18.713 C 18.516,-8.57 10.794,0 0,0 m 1.372,-41.091 c -12.826,0 -23.62,8.247 -23.62,20.481 0,13.023 10.01,22.246 23.952,22.246 12.364,0 22.96,-8.439 22.96,-20.215 0,-13.22 -10.596,-22.512 -23.292,-22.512" /></g><g
           transform="translate(429.0439,407.4836)"
           id="g44"><path
             id="path46"
             style="fill:#1d1d1d;fill-opacity:1;fill-rule:nonzero;stroke:none"
             d="m 0,0 c -4.91,0 -5.95,-0.853 -5.95,-3.404 l 0,-36.507 -1.704,0 -33.894,35.462 0,-28.072 c 0,-4.709 1.046,-5.691 6.606,-5.691 l 0,-1.242 -15.175,0 0,1.242 0.255,0 c 4.059,0 5.368,1.377 5.368,4.386 l 0,32.189 C -46,-0.587 -47.695,-0.068 -49.987,0 l 0,1.242 10.269,0 30.817,-32.126 0,26.041 c 0,3.99 -1.176,4.713 -6.413,4.843 l 0,1.242 15.314,0" /></g><g
           transform="translate(196.3418,174.5661)"
           id="g48"><path
             id="path50"
             style="fill:#1d1d1d;fill-opacity:1;fill-rule:nonzero;stroke:none"
             d="m 0,0 0,1.103 -0.578,0 c -3.49,0 -4.651,0.933 -4.651,5.069 l 0,24.11 c 0,3.606 0.925,4.656 4.416,4.771 l 0,1.113 -9.306,0 -13.947,-29.354 -14.01,29.354 -8.772,0 0,-1.05 c 2.835,-0.182 3.491,-0.938 3.533,-3.115 l 0,-26.994 c 0,-2.682 -1.16,-3.904 -4.766,-3.904 l -0.231,0 0,-1.103 13.485,0 0,1.103 c -4.945,0 -5.873,0.876 -5.873,5.069 l 0,24.866 0.009,0 L -25.872,0 l 1.338,0 14.472,31.038 0.01,0 0,-25.564 c 0,-3.028 -0.814,-4.371 -4.593,-4.371 l -1.8,0 0,-1.103 L 0,0 Z" /></g><g
           transform="translate(403.5796,179.8562)"
           id="g52"><path
             id="path54"
             style="fill:#1d1d1d;fill-opacity:1;fill-rule:nonzero;stroke:none"
             d="m 0,0 0,12.378 9.821,0 c 2.384,0 3.492,-0.463 3.954,-4.594 l 1.106,0 0,11.044 -1.106,0 c -0.29,-3.369 -1.276,-4.356 -3.371,-4.356 l -10.404,0 0,14.298 12.267,0 c 2.09,0 3.544,-1.049 4.294,-5.989 l 1.05,0 -0.462,8.078 -27.899,0 0,-1.102 1.276,0 c 3.894,0 4.651,-1.391 4.651,-4.651 l 0,-24.529 c 0,-3.485 -0.814,-4.762 -5.465,-4.762 l -1.627,0 0,-1.106 30.864,0 0.93,8.66 -1.049,0 c -1.45,-4.997 -2.673,-6.566 -6.741,-6.566 l -8.95,0 C 0.987,-3.197 0,-2.678 0,0 m -12.526,29.757 0,1.102 -13.597,0 0,-1.102 c 4.646,-0.12 5.696,-0.756 5.696,-4.304 l 0,-23.133 -27.374,28.539 -9.128,0 0,-1.102 c 2.036,-0.058 3.548,-0.525 4.882,-1.454 l 0,-28.597 c 0,-2.673 -1.161,-3.891 -4.766,-3.891 l -0.232,0 0,-1.106 13.485,0 0,1.106 c -4.939,0 -5.874,0.872 -5.874,5.056 l 0,24.934 30.109,-31.506 1.512,0 0,32.434 c 0,2.268 0.929,3.024 5.287,3.024 m -61.706,-35.048 14.13,0 0,1.106 c -4.011,0 -4.944,1.162 -4.944,4.589 l 0,24.644 c 0,3.895 1.28,4.709 4.944,4.709 l 0,1.102 -14.13,0 0,-1.102 c 3.26,-0.173 4.362,-1.044 4.362,-4.184 l 0,-24.761 c 0,-3.894 -0.756,-4.823 -4.362,-4.997 l 0,-1.106 z m -5.913,0.64 c 1.397,2.267 2.966,5.869 3.718,8.488 l -1.103,0 c -3.952,-7.034 -9.59,-8.604 -14.182,-8.604 -8.835,0 -16.389,7.728 -16.389,18.251 0,9.764 6.047,16.798 15.748,16.798 6.34,0 11.337,-3.549 13.253,-8.95 l 1.108,0 -0.53,8.425 -0.866,0 c -0.12,-0.173 -0.409,-0.352 -1.05,-0.352 -1.8,0 -4.935,2.331 -12.262,2.331 -12.147,0 -20.865,-8.141 -20.865,-19.412 0,-10.755 8.488,-18.545 20.282,-18.545 6.861,0 9.417,2.095 13.138,1.57 m -49.539,-0.64 14.121,0 0,1.106 c -4.01,0 -4.939,1.162 -4.939,4.589 l 0,24.644 c 0,3.895 1.275,4.709 4.939,4.709 l 0,1.102 -14.121,0 0,-1.102 c 3.25,-0.173 4.357,-1.044 4.357,-4.184 l 0,-24.761 c 0,-3.894 -0.756,-4.823 -4.357,-4.997 l 0,-1.106 z m -2.585,19.296 c 0,9.59 -6.798,17.38 -22.141,17.38 -3.024,0 -6.572,-0.059 -9.769,-0.179 -3.196,-0.116 -6.037,-0.227 -8.194,-0.347 l 0,-1.102 1.161,0 c 3.432,0 4.42,-0.934 4.42,-4.709 l 0,-24.99 c 0,-3.371 -1.45,-4.243 -4.593,-4.243 l -0.988,0 0,-1.106 18.604,0 c 14.702,0 21.5,10.52 21.5,19.296 m -5.46,-0.93 c 0,-5.984 -2.676,-10.461 -4.824,-12.555 -3.6,-3.602 -6.86,-4.705 -14.644,-4.705 -4.594,0 -4.771,0.815 -4.771,3.198 l 0,31.033 c 0.698,0.058 2.267,0.236 4.651,0.236 8.141,0 12.261,-2.037 14.938,-4.709 3.427,-3.427 4.65,-8.199 4.65,-12.498 m -37.946,-18.366 0.929,8.66 -1.049,0 c -1.45,-4.997 -2.673,-6.566 -6.741,-6.566 l -8.95,0 c -2.152,0 -3.139,0.519 -3.139,3.197 l 0,12.378 9.822,0 c 2.383,0 3.49,-0.463 3.957,-4.594 l 1.102,0 0,11.044 -1.102,0 c -0.293,-3.369 -1.28,-4.356 -3.375,-4.356 l -10.404,0 0,14.298 12.263,0 c 2.094,0 3.544,-1.049 4.304,-5.989 l 1.04,0 -0.457,8.078 -27.9,0 0,-1.102 1.276,0 c 3.894,0 4.651,-1.391 4.651,-4.651 l 0,-24.529 c 0,-3.485 -0.814,-4.762 -5.465,-4.762 l -0.462,0 0,-1.106 29.7,0 z" /></g><g
           transform="translate(186.7559,223.8855)"
           id="g56"><path
             id="path58"
             style="fill:#1d1d1d;fill-opacity:1;fill-rule:nonzero;stroke:none"
             d="M 0,0 -0.005,0 0,0 C 0,0 -1.892,-0.193 -3.019,-0.106 -3.534,-0.077 -4.04,0.101 -4.04,0.101 -4.256,0.183 -4.486,0.298 -4.718,0.423 -4.766,0.447 -4.814,0.472 -4.862,0.5 -5.094,0.626 -5.325,0.77 -5.565,0.929 -5.619,0.963 -5.667,1.001 -5.714,1.034 -5.941,1.188 -6.177,1.353 -6.413,1.525 -6.441,1.55 -6.471,1.569 -6.504,1.593 -6.75,1.785 -7.005,1.987 -7.26,2.19 -7.323,2.248 -7.39,2.301 -7.457,2.35 L -8.18,2.956 c -0.067,0.058 -0.13,0.115 -0.192,0.168 -0.198,0.174 -0.39,0.342 -0.583,0.511 -0.072,0.062 -0.144,0.12 -0.207,0.182 -0.197,0.179 -0.395,0.347 -0.582,0.516 -0.77,0.688 -1.44,1.3 -1.926,1.68 1.54,2.739 1.926,5.821 2.258,8.853 0.211,1.854 1.362,1.815 1.926,1.921 l 0,0.819 -0.005,0.004 -8.656,0 0,-0.823 c 0.659,-0.149 4.28,0.192 4.28,-4.66 0,-2.022 -0.188,-3.755 -1.391,-5.104 -10.39,9.62 -17.51,17.221 -17.51,20.443 0,2.277 1.737,3.846 3.909,3.889 3.355,-0.096 6.451,-2.339 7.814,-5.849 l 0.851,0 -0.851,6.331 -0.794,0 c -0.304,-0.4 -0.502,-0.501 -0.901,-0.501 -1.44,0 -2.355,0.823 -4.973,1.112 l -0.005,0 c -0.664,0.077 -1.151,0.073 -1.151,0.073 -3.63,-0.005 -6.639,-2.49 -6.639,-6.452 0,-2.017 0.963,-3.943 2.215,-5.484 -5.147,-1.103 -7.699,-5.045 -7.699,-10.196 0,-7.496 6.201,-12.165 13.274,-12.165 4.718,0 8.367,1.636 11.834,4.856 2.56,-2.05 5.131,-4.679 8.569,-4.842 l 0.058,0 c 0.115,-0.006 0.188,-0.014 0.274,-0.014 l 0.087,0.004 c 0,0 0.067,-0.004 0.101,-0.004 l 0.057,0.014 0,-0.014 c 0,0 1.329,0.043 2.875,0.351 C -1.001,-1.257 0,-1.002 0,-1.002 L 0,0 Z M -15.474,4.141 C -17.828,2.118 -21,1.063 -24.082,1.063 c -6.2,0 -12.315,5.383 -12.315,11.782 0,2.787 2.215,6.538 5.243,6.538 1.738,0 5.387,-6.443 15.68,-15.242" /></g><g
           transform="translate(148.9419,328.6677)"
           id="g60"><path
             id="path62"
             style="fill:#1d1d1d;fill-opacity:1;fill-rule:nonzero;stroke:none"
             d="m 0,0 c 1.218,-5.156 5.272,-8.166 9.788,-8.166 3.885,0 7.991,2.253 7.991,6.833 0,8.342 -18.589,10.89 -18.589,21.029 0,4.804 4.402,8.395 10.312,8.395 4.864,0 5.846,-1.448 7.873,-1.448 0.467,0 0.697,0.12 1.044,0.577 l 0.929,0 0.982,-7.356 -0.982,0 c -1.622,4.174 -5.329,6.836 -9.325,6.836 -3.828,0 -6.49,-2.2 -6.49,-5.445 0,-8.223 18.593,-10.423 18.593,-21.082 0,-5.681 -5.036,-9.903 -11.813,-9.903 -3.188,0 -7.242,1.564 -8.051,1.564 -0.525,0 -0.929,-0.292 -1.16,-0.64 l -0.987,0 L -1.103,0 0,0 Z" /></g><g
           transform="translate(208.4673,346.3928)"
           id="g64"><path
             id="path66"
             style="fill:#1d1d1d;fill-opacity:1;fill-rule:nonzero;stroke:none"
             d="m 0,0 c -1.907,5.382 -6.895,8.92 -13.206,8.92 -9.672,0 -15.694,-7.014 -15.694,-16.739 0,-10.485 7.53,-18.188 16.335,-18.188 4.573,0 10.192,1.565 14.13,8.57 l 1.102,0 c -0.755,-2.605 -2.32,-6.197 -3.707,-8.455 -3.707,0.52 -6.258,-1.565 -13.095,-1.565 -11.756,0 -20.211,7.762 -20.211,18.478 0,11.237 8.691,19.344 20.794,19.344 7.298,0 10.427,-2.316 12.223,-2.316 0.636,0 0.925,0.173 1.04,0.347 l 0.872,0 L 1.103,0 0,0 Z" /></g><g
           transform="translate(222.1299,337.0647)"
           id="g68"><path
             id="path70"
             style="fill:#1d1d1d;fill-opacity:1;fill-rule:nonzero;stroke:none"
             d="m 0,0 0,-11.005 c 0,-3.761 0.755,-5.099 4.636,-5.099 l 0.174,0 0,-1.098 -14.54,0 0,1.098 0.353,0 c 3.417,0 4.572,0.93 4.572,4.232 l 0,25.482 c 0,3.014 -0.987,3.886 -4.169,4.116 l 0,1.098 13.784,0 0,-1.098 C 0.698,17.726 0,16.624 0,12.161 L 0,2.09 l 22.708,0 0,11.41 c 0,3.066 -0.985,4.226 -4.572,4.226 l -1.103,0 0,1.098 14.886,0 0,-1.098 c -3.475,-0.115 -4.405,-1.16 -4.405,-4.751 l 0,-24.038 c 0,-4.111 1.16,-5.041 4.636,-5.041 l 0.578,0 0,-1.098 -16.388,0 0,1.098 1.796,0 c 3.76,0 4.572,1.338 4.572,4.347 L 22.708,0 0,0 Z" /></g><g
           transform="translate(275.9771,355.3112)"
           id="g72"><path
             id="path74"
             style="fill:#1d1d1d;fill-opacity:1;fill-rule:nonzero;stroke:none"
             d="m 0,0 c -10.193,0 -14.251,-9.499 -14.251,-16.451 0,-10.832 7.356,-18.477 16.682,-18.477 9.445,0 13.961,8.343 13.961,16.565 C 16.392,-7.588 9.556,0 0,0 m 1.218,-36.378 c -11.353,0 -20.914,7.299 -20.914,18.131 0,11.526 8.863,19.696 21.197,19.696 10.953,0 20.336,-7.472 20.336,-17.9 0,-11.703 -9.383,-19.927 -20.619,-19.927" /></g><g
           transform="translate(321.1675,355.3112)"
           id="g76"><path
             id="path78"
             style="fill:#1d1d1d;fill-opacity:1;fill-rule:nonzero;stroke:none"
             d="m 0,0 c -10.192,0 -14.25,-9.499 -14.25,-16.451 0,-10.832 7.355,-18.477 16.686,-18.477 9.441,0 13.957,8.343 13.957,16.565 C 16.393,-7.588 9.557,0 0,0 m 1.218,-36.378 c -11.353,0 -20.913,7.299 -20.913,18.131 0,11.526 8.863,19.696 21.197,19.696 10.953,0 20.336,-7.472 20.336,-17.9 0,-11.703 -9.383,-19.927 -20.62,-19.927" /></g><g
           transform="translate(369.8467,319.8615)"
           id="g80"><path
             id="path82"
             style="fill:#1d1d1d;fill-opacity:1;fill-rule:nonzero;stroke:none"
             d="m 0,0 -25.891,0 0,1.102 1.911,0 c 2.662,0 3.644,0.868 3.644,3.818 l 0,25.665 c 0,3.067 -0.924,4.343 -4.574,4.343 l -0.808,0 0,1.098 17.086,0 0,-1.098 -2.142,0 c -3.77,0 -4.752,-0.405 -4.752,-3.995 l 0,-26.701 c 0,-1.565 0.636,-2.143 2.32,-2.143 l 8.512,0 c 3.419,0 4.459,1.329 8.112,6.369 l 1.04,0 L 0,0 Z" /></g><g
           transform="translate(390.9287,346.1809)"
           id="g84"><path
             id="path86"
             style="fill:#1d1d1d;fill-opacity:1;fill-rule:nonzero;stroke:none"
             d="m 0,0 c -3.65,0 -6.895,-7.01 -6.895,-12.801 0,-4.867 2.085,-7.241 4.054,-7.241 4.636,0 7.356,7.525 7.356,12.859 C 4.515,-3.13 2.546,0 0,0 m 2.951,2.138 c 1.684,0 5.271,-2.311 5.271,-8.512 0,-11.001 -10.943,-15.811 -13.668,-15.811 -2.72,0 -5.151,4.342 -5.151,9.148 0,9.382 10.076,15.175 13.548,15.175" /></g><g
           transform="translate(402.1553,345.1277)"
           id="g88"><path
             id="path90"
             style="fill:#1d1d1d;fill-opacity:1;fill-rule:nonzero;stroke:none"
             d="M 0,0 0.173,0.958 C 1.565,1.107 2.956,1.31 4.4,1.613 c 0.872,4.131 2.61,8.464 5.854,11.29 2.027,1.762 4.574,2.72 6.836,2.72 2.258,0 4.107,-1.107 4.107,-2.422 0,-0.804 -0.688,-1.463 -1.622,-1.463 -1.907,0 -3.471,2.07 -5.151,2.07 -2.263,0 -4.111,-2.22 -4.921,-5.541 l -1.569,-6.601 4.988,0 L 12.34,0 7.588,0 4.635,-14.717 c -2.262,-11.285 -8.862,-15.315 -14.307,-15.315 -2.436,0 -4.463,1.054 -4.463,2.316 0,0.804 0.929,1.511 1.916,1.511 2.138,0 3.298,-2.214 5.498,-2.214 1.339,0 2.494,0.554 3.538,1.459 2.894,2.523 3.996,11.135 4.227,12.349 L 3.996,0 0,0 Z" /></g><g
           transform="translate(158.5518,286.8054)"
           id="g92"><path
             id="path94"
             style="fill:#1d1d1d;fill-opacity:1;fill-rule:nonzero;stroke:none"
             d="m 0,0 0,-12.2 c 0,-4.174 0.833,-5.652 5.131,-5.652 l 0.193,0 0,-1.222 -16.113,0 0,1.222 0.385,0 c 3.789,0 5.074,1.026 5.074,4.69 l 0,28.25 c 0,3.337 -1.093,4.299 -4.622,4.56 l 0,1.218 15.276,0 0,-1.218 C 0.77,19.648 0,18.425 0,13.485 l 0,-11.179 25.169,0 0,12.652 c 0,3.404 -1.092,4.69 -5.074,4.69 l -1.218,0 0,1.218 16.503,0 0,-1.218 C 31.524,19.517 30.499,18.362 30.499,14.38 l 0,-26.647 c 0,-4.559 1.285,-5.585 5.132,-5.585 l 0.645,0 0,-1.222 -18.169,0 0,1.222 1.988,0 c 4.174,0 5.074,1.478 5.074,4.815 L 25.169,0 0,0 Z" /></g><g
           transform="translate(229.5308,301.8269)"
           id="g96"><path
             id="path98"
             style="fill:#1d1d1d;fill-opacity:1;fill-rule:nonzero;stroke:none"
             d="m 0,0 c 2.055,3.528 0.837,4.626 -3.275,4.626 l 0,1.218 14.511,0 0,-1.218 C 6.874,4.304 5.011,2.571 3.21,-0.448 l -10.658,-18.043 0,-9.629 c 0,-3.404 1.222,-4.752 5.141,-4.752 l 0.828,0 0,-1.224 -17.654,0 0,1.224 1.218,0 c 3.982,0 5.142,1.477 5.142,4.621 l 0,9.057 -11.43,17.846 c -3.153,4.944 -4.625,5.844 -8.795,5.974 l 0,1.218 17.072,0 0,-1.218 c -5.008,0 -5.325,-1.222 -3.399,-4.174 L -9.051,-15.405 0,0 Z" /></g><g
           transform="translate(274.9893,270.7497)"
           id="g100"><path
             id="path102"
             style="fill:#1d1d1d;fill-opacity:1;fill-rule:nonzero;stroke:none"
             d="m 0,0 c -6.354,-3.274 -14.511,-4.044 -17.207,-4.044 -14.063,0 -20.61,10.851 -20.61,20.225 0,9.629 6.74,21.702 22.411,21.702 6.87,0 11.429,-2.18 12.772,-2.18 0.578,0 1.093,0.125 1.479,0.447 l 0.9,0 0,-10.399 -1.286,0 c -1.733,8.026 -7.188,10.529 -13.162,10.529 -11.299,0 -17.082,-9.373 -17.082,-19.714 0,-13.163 9.249,-19.006 16.634,-19.006 2.951,0 6.225,0.643 9.826,2.44 l 0,8.093 c 0,3.659 -1.285,4.876 -5.142,4.876 l -2.373,0 0,1.161 17.337,0 0,-1.161 C 1.285,12.777 0,11.689 0,8.926 L 0,0 Z" /></g><g
           transform="translate(296.7383,267.7312)"
           id="g104"><path
             id="path106"
             style="fill:#1d1d1d;fill-opacity:1;fill-rule:nonzero;stroke:none"
             d="m 0,0 -15.603,0 0,1.223 c 3.981,0.192 4.814,1.217 4.814,5.517 l 0,27.356 c 0,3.471 -1.217,4.434 -4.814,4.626 l 0,1.218 15.603,0 0,-1.218 c -4.049,0 -5.459,-0.905 -5.459,-5.204 l 0,-27.221 C -5.459,2.509 -4.434,1.223 0,1.223 L 0,0 Z" /></g><g
           transform="translate(329.1509,282.1794)"
           id="g108"><path
             id="path110"
             style="fill:#1d1d1d;fill-opacity:1;fill-rule:nonzero;stroke:none"
             d="m 0,0 -1.223,0 c -0.51,4.56 -1.733,5.074 -4.361,5.074 l -10.853,0 0,-13.678 c 0,-2.95 1.088,-3.533 3.467,-3.533 l 9.884,0 c 4.497,0 5.844,1.739 7.447,7.255 l 1.157,0 -1.021,-9.566 -34.096,0 0,1.223 1.795,0 c 5.138,0 6.038,1.411 6.038,5.267 l 0,27.095 c 0,3.596 -0.838,5.136 -5.136,5.136 l -1.416,0 0,1.219 30.821,0 0.515,-8.926 -1.155,0 c -0.839,5.459 -2.441,6.61 -4.757,6.61 l -13.543,0 0,-15.791 11.493,0 c 2.31,0 3.403,1.094 3.721,4.814 L 0,12.199 0,0 Z" /></g><g
           transform="translate(379.2451,267.2849)"
           id="g112"><path
             id="path114"
             style="fill:#1d1d1d;fill-opacity:1;fill-rule:nonzero;stroke:none"
             d="m 0,0 -33.262,34.803 0,-27.548 c 0,-4.621 1.03,-5.584 6.485,-5.584 l 0,-1.224 -14.896,0 0,1.224 0.255,0 c 3.986,0 5.267,1.348 5.267,4.299 l 0,31.592 c -1.473,1.03 -3.143,1.54 -5.392,1.607 l 0,1.218 10.082,0 30.238,-31.524 0,25.55 c 0,3.919 -1.155,4.622 -6.292,4.756 l 0,1.218 15.03,0 0,-1.218 C 2.696,39.169 1.67,38.332 1.67,35.828 L 1.67,0 0,0 Z" /></g><g
           transform="translate(417.9663,282.1794)"
           id="g116"><path
             id="path118"
             style="fill:#1d1d1d;fill-opacity:1;fill-rule:nonzero;stroke:none"
             d="m 0,0 -1.223,0 c -0.51,4.56 -1.729,5.074 -4.361,5.074 l -10.853,0 0,-13.678 c 0,-2.95 1.089,-3.533 3.467,-3.533 l 9.884,0 c 4.502,0 5.845,1.739 7.453,7.255 l 1.15,0 -1.02,-9.566 -34.095,0 0,1.223 1.795,0 c 5.137,0 6.037,1.411 6.037,5.267 l 0,27.095 c 0,3.596 -0.833,5.136 -5.136,5.136 l -1.416,0 0,1.219 30.827,0 0.509,-8.926 -1.154,0 c -0.834,5.459 -2.442,6.61 -4.757,6.61 l -13.544,0 0,-15.791 11.493,0 c 2.31,0 3.403,1.094 3.721,4.814 L 0,12.199 0,0 Z" /></g><g
           transform="translate(200.2637,227.6696)"
           id="g120"><path
             id="path122"
             style="fill:#1d1d1d;fill-opacity:1;fill-rule:nonzero;stroke:none"
             d="m 0,0 c 0,-2.84 0.943,-3.837 4.149,-3.837 l 1.951,0 0,-1.001 -16.561,0 0,1.001 1.944,0 c 3.207,0 4.155,0.997 4.155,3.837 l 0,25.964 -9.147,0 c -2.099,0 -3.044,-1.209 -3.838,-5.83 l -0.943,0 0.842,8.507 0.997,0 c 0.053,-0.313 0.265,-0.526 0.577,-0.631 0.319,-0.101 0.685,-0.155 1.051,-0.155 l 25.284,0 c 0.732,0 1.522,0.155 1.627,0.786 l 1.002,0 0.842,-8.507 -0.953,0 c -0.785,4.621 -1.733,5.83 -3.837,5.83 L 0,25.964 0,0 Z" /></g><g
           transform="translate(225.3462,237.656)"
           id="g124"><path
             id="path126"
             style="fill:#1d1d1d;fill-opacity:1;fill-rule:nonzero;stroke:none"
             d="m 0,0 c 1.261,-0.159 2.051,-0.106 3.259,-0.106 5.835,0 9.672,2.469 9.672,8.781 0,4.882 -2.21,8.671 -10.302,8.671 -1.002,0 -1.686,0 -2.629,-0.111 L 0,0 Z m 0,-9.885 c 0,-3.152 1.261,-3.937 4.203,-3.937 l 1.209,0 0,-1.001 -14.878,0 0,1.001 0.896,0 c 3.101,0 4.209,0.843 4.209,4.362 l 0,22.126 c 0,3.26 -0.897,4.203 -3.949,4.203 l -1.156,0 0,1.002 c 1.267,0 4.473,0.206 6.626,0.313 2.152,0.106 3.206,0.159 6.619,0.159 9.729,0 14.087,-3.996 14.087,-9.355 0,-3.942 -2.681,-7.255 -6.986,-8.516 1.941,-1.527 3.519,-2.994 5.989,-5.465 l 4.151,-4.15 c 3.105,-3.105 6.31,-5.05 10.355,-5.31 l 0,-0.948 c -9.201,-0.418 -11.564,1.579 -16.239,6.258 l -3.47,3.467 C 9.354,-3.365 7.515,-1.84 6.254,-1.001 4.935,-1.055 4.102,-1.103 2.681,-1.103 1.521,-1.103 0.838,-1.055 0,-1.001 l 0,-8.884 z" /></g><g
           transform="translate(267.8945,255.0007)"
           id="g128"><path
             id="path130"
             style="fill:#1d1d1d;fill-opacity:1;fill-rule:nonzero;stroke:none"
             d="m 0,0 c -9.253,0 -12.931,-8.619 -12.931,-14.93 0,-9.826 6.677,-16.763 15.141,-16.763 8.565,0 12.667,7.567 12.667,15.03 C 14.877,-6.885 8.676,0 0,0 m 1.103,-33.008 c -10.298,0 -18.974,6.624 -18.974,16.455 0,10.452 8.04,17.862 19.239,17.862 9.936,0 18.448,-6.779 18.448,-16.239 0,-10.615 -8.512,-18.078 -18.713,-18.078" /></g><g
           transform="translate(296.7617,238.0739)"
           id="g132"><path
             id="path134"
             style="fill:#1d1d1d;fill-opacity:1;fill-rule:nonzero;stroke:none"
             d="m 0,0 c 0.684,-0.154 1.839,-0.419 2.835,-0.419 5.73,0 9.408,3.89 9.408,9.195 0,4.103 -1.627,8.152 -8.618,8.152 -1.208,0 -2.364,0 -3.625,-0.213 L 0,0 Z m 0,-10.192 c 0,-2.947 0.896,-4.049 4.203,-4.049 l 1.733,0 0,-1.001 -14.559,0 0,1.001 0.738,0 c 2.733,0 3.524,0.578 3.524,3.048 l 0,24.861 c 0,1.94 -0.632,2.783 -2.475,2.783 l -2.629,0 0,1.001 c 1.478,0.053 4.049,0.207 6.625,0.313 2.575,0.106 5.098,0.159 6.518,0.159 10.987,0 13.504,-5.258 13.504,-9.301 C 17.182,2.475 12.243,-1.42 4.467,-1.42 2.893,-1.42 1.575,-1.31 0,-0.996 l 0,-9.196 z" /></g><g
           transform="translate(328.958,222.8318)"
           id="g136"><path
             id="path138"
             style="fill:#1d1d1d;fill-opacity:1;fill-rule:nonzero;stroke:none"
             d="m 0,0 -12.769,0 0,1.002 c 3.25,0.154 3.939,0.996 3.939,4.516 l 0,22.391 c 0,2.84 -1.002,3.63 -3.939,3.783 l 0,1.002 12.769,0 0,-1.002 c -3.308,0 -4.468,-0.73 -4.468,-4.255 l 0,-22.286 C -4.468,2.052 -3.625,1.002 0,1.002 L 0,0 Z" /></g><g
           transform="translate(361.4966,246.9079)"
           id="g140"><path
             id="path142"
             style="fill:#1d1d1d;fill-opacity:1;fill-rule:nonzero;stroke:none"
             d="m 0,0 c -1.733,4.887 -6.258,8.093 -11.983,8.093 -8.776,0 -14.241,-6.364 -14.241,-15.194 0,-9.508 6.832,-16.499 14.819,-16.499 4.15,0 9.253,1.42 12.825,7.781 l 0.997,0 c -0.684,-2.369 -2.104,-5.629 -3.36,-7.68 -3.371,0.478 -5.681,-1.42 -11.883,-1.42 -10.668,0 -18.342,7.048 -18.342,16.773 0,10.193 7.885,17.548 18.867,17.548 6.62,0 9.461,-2.098 11.093,-2.098 0.578,0 0.842,0.159 0.944,0.312 l 0.789,0 L 0.996,0 0,0 Z" /></g><g
           transform="translate(379.1421,251.8972)"
           id="g144"><path
             id="path146"
             style="fill:#1d1d1d;fill-opacity:1;fill-rule:nonzero;stroke:none"
             d="m 0,0 -4.473,-12.243 9.099,0 L 0,0 Z m -5.359,-14.554 -3.052,-8.252 c -0.366,-1.002 -1.05,-2.576 -1.05,-3.317 0,-1.416 1.363,-1.939 4.256,-1.939 l 0.843,0 0,-1.002 -12.146,0 0,1.002 c 3.417,0.051 3.995,0.628 5.68,5.203 l 9.561,26.118 -0.466,1.156 4.568,0 10.986,-29.171 c 1.05,-2.783 2.153,-3.306 4.781,-3.306 l 0,-1.002 -14.453,0 0,1.002 1.369,0 c 2.999,0 4.096,0.312 4.096,1.785 0,0.842 -0.365,1.627 -0.573,2.151 l -3.523,9.572 -10.877,0 z" /></g><g
           transform="translate(422.0713,222.8318)"
           id="g148"><path
             id="path150"
             style="fill:#1d1d1d;fill-opacity:1;fill-rule:nonzero;stroke:none"
             d="m 0,0 -23.495,0 0,1.002 1.729,0 c 2.422,0 3.317,0.784 3.317,3.471 l 0,23.282 c 0,2.782 -0.842,3.937 -4.149,3.937 l -0.742,0 0,1.002 15.507,0 0,-1.002 -1.945,0 c -3.414,0 -4.314,-0.365 -4.314,-3.624 l 0,-24.231 c 0,-1.415 0.578,-1.94 2.109,-1.94 l 7.722,0 c 3.106,0 4.049,1.208 7.362,5.782 l 0.943,0 L 0,0 Z" /></g><g
           transform="translate(566.4697,377.7229)"
           id="g152"><path
             id="path154"
             style="fill:#1d1d1d;fill-opacity:1;fill-rule:nonzero;stroke:none"
             d="m 0,0 c 0.363,-0.213 0.771,-1.333 0.916,-1.696 0.14,-0.363 6.259,-17.648 6.399,-18.113 0.15,-0.47 -0.078,-1.182 -0.737,-1.41 -0.557,-0.193 -1.245,-0.227 -1.671,0.602 -0.155,0.305 -2.296,6.694 -4.191,12.212 -1.273,3.71 -2.48,6.869 -2.581,7.179 -0.174,0.523 0.262,1.086 0.659,1.265 C -0.809,0.218 -0.358,0.218 0,0 m -0.775,-11.316 c -0.019,-0.946 -0.125,-2.04 -0.15,-3.271 -0.083,-4.752 -0.228,-10.86 -0.625,-12.934 -0.063,-0.354 -0.214,-0.504 -0.34,-0.586 -0.126,-0.082 -0.252,-0.223 -0.455,-0.232 -0.736,-0.049 -1.889,-0.078 -2.122,-0.039 -0.421,0.067 -0.977,0.126 -1.234,0.126 -0.257,0 -1.289,-0.01 -1.614,0.13 -0.514,0.205 -0.742,0.504 -0.974,1.032 -0.155,0.33 -0.344,1.308 -0.45,2.413 -0.087,0.901 -0.108,1.913 -0.17,2.737 -0.053,0.683 -0.048,0.94 0.073,1.797 0.16,1.153 1.026,6.681 1.555,7.79 0.474,1.017 0.417,1.1 1.095,2.34 0.421,0.765 0.819,1.39 1.428,2.349 0.621,0.974 1.212,2.03 1.6,2.795 0.106,0.214 0.174,0.397 0.252,0.505 0.198,0.285 0.304,0.174 0.353,0.174 0.344,0 0.485,-0.214 0.698,-0.766 0.212,-0.557 0.978,-2.936 1.07,-3.609 0.019,-0.155 0.058,-1.23 0.01,-2.751 m -40.871,7.513 c 0,0 4.755,10.144 13.946,15.439 2.892,1.656 5.701,3.323 9.184,3.377 8.532,0.136 13.167,-2.902 15.914,-7.456 0.3,-0.514 0.586,-1.036 0.848,-1.584 0.165,-0.348 0.296,-1.371 0.398,-2.979 -0.131,-0.412 -0.31,-0.785 -0.509,-0.858 -0.489,-0.194 -1.119,0.218 -1.521,-0.368 -0.435,-0.64 -0.107,-1.26 0.072,-1.511 0.184,-0.253 0.46,-1.105 -0.072,-2.505 -0.141,-0.383 -0.378,-0.775 -0.649,-1.24 -1.173,-2.015 -2.539,-3.886 -3.425,-5.832 -1.23,-2.671 -1.851,-5.14 -2.02,-5.538 -0.287,-0.683 -0.946,-6.21 -0.946,-7.281 0,-0.654 0.039,-1.957 0.147,-3.11 0.062,-0.727 0.213,-1.502 0.217,-1.661 0.005,-0.63 0.014,-1.007 -0.761,-1.298 -0.227,-0.088 -1.172,-0.02 -2.567,0 -1.549,0.019 -3.653,0 -5.411,0.105 -2.171,0.137 -3.997,0.393 -4.268,0.431 -0.683,0.098 -0.683,0.297 -0.925,0.742 -0.251,0.441 0.155,1.478 -0.234,1.478 -0.386,0 -1.191,-0.867 -1.675,-1.357 -0.485,-0.489 -1.492,-0.716 -1.21,-0.993 0.876,-0.872 2.45,-3.052 2.595,-2.67 0.17,0.437 -0.096,1.415 0.979,1.856 0.412,0.165 4.118,-0.208 7.48,-0.314 1.148,-0.034 2.495,-0.369 4.162,-0.234 0.595,0.039 1.201,-0.106 1.723,-0.052 3.585,0.328 5.558,-0.097 7.01,-0.509 0.767,-0.218 1.376,-0.437 1.982,-0.606 l 0,-0.009 0.034,0 c 0.702,-0.189 1.38,-0.306 2.261,-0.257 0.926,0.048 1.842,-0.029 2.67,0.063 1.541,0.179 3.488,0.737 4.869,1.032 3.332,0.716 4.713,1.148 5.207,1.22 0.394,0.064 1.464,0.228 2.689,0.335 1.43,0.116 3.057,0.165 4.098,0.165 1.172,0 4.535,-0.258 7.413,-0.456 0.712,-0.054 1.428,-0.213 2.029,-0.233 1.017,-0.033 1.807,0.141 2.219,0.204 1.623,0.262 2.761,1.124 3.547,1.788 0.464,0.393 0.856,0.697 0.983,0.823 0.455,0.45 2.601,1.381 2.702,1.802 0.021,0.068 -0.033,0.169 -0.232,0.203 -0.397,0.073 -1.188,0.039 -1.889,0.03 -0.901,-0.015 -1.942,-0.228 -2.669,-0.32 -0.81,-0.101 -4.985,-1.06 -7.204,-1.593 -0.398,-0.098 -0.746,-0.02 -1.114,-0.092 -1.231,-0.233 -2.335,-0.402 -3.333,-0.591 -1.129,-0.223 -2.001,-0.258 -2.301,-0.282 -1.275,-0.087 -2.921,0 -3.953,0.029 -1.754,0.049 -3.556,0.194 -4.361,0.243 -1.414,0.092 -3.472,0.576 -4.127,0.736 -0.043,0.014 -0.086,0.033 -0.145,0.039 l -0.005,0 c -0.392,0.102 -1.394,-0.053 -2.814,-0.625 -0.49,-0.199 -0.843,-0.422 -1.12,-0.654 L 4.263,-26.736 C 4.04,-26.91 3.861,-27.133 3.701,-27.371 L 3.687,-27.41 c -0.03,-0.038 -0.049,-0.081 -0.079,-0.125 l -0.004,0 c -0.199,-0.335 -0.368,-0.664 -0.562,-0.897 -0.479,-0.513 -1.22,-0.106 -1.69,0.083 -0.069,0.024 -0.146,0.072 -0.208,0.145 -0.185,0.252 -0.307,0.485 -0.383,0.721 -0.092,0.359 -0.112,0.786 0.014,1.256 0.184,0.571 0.581,1.109 1.002,1.622 0.063,0.088 0.141,0.166 0.214,0.242 1.211,1.056 2.945,1.541 4.234,1.836 0.906,0.204 1.536,0.325 1.711,0.417 0.085,0.034 0.144,0.068 0.203,0.107 0.27,0.116 0.391,0.276 0.378,0.732 -0.069,2.097 -0.301,4.146 -0.329,6.06 -0.059,2.916 -0.17,5.605 -0.181,8.022 -0.004,2.209 0.107,4.21 0.014,5.959 -0.096,1.825 0.185,7.198 0.417,7.828 2.383,6.452 8.962,7.862 13.991,7.605 3.251,-0.164 5.721,-1.191 6.428,-1.438 C 40.926,8.535 42.567,-7.334 43.153,-5.125 46.937,9.049 39.326,17.217 29.633,19.314 15.855,22.289 7.068,12.585 6.477,11.636 5.891,10.676 3.241,11.781 4.636,13.54 c 5.537,6.99 12.281,7.867 17.425,8.899 3.725,0.741 12.707,-1.09 17.561,-3.682 4.108,-2.19 6.089,-5.164 5.886,-4.403 C 44.845,16.776 42.35,27.288 27.869,28.393 20.506,28.95 14.049,26.073 9.242,22.444 6.739,20.55 4.709,18.331 3.174,16.553 1.162,14.237 0.232,12.247 -0.286,12.222 c -1.22,-0.054 -3.589,3.692 -8.889,6.25 -2.51,1.206 -5.479,2.092 -8.842,2.446 -3.434,0.358 -7.382,0.199 -11.253,-1.366 -2.271,-0.916 -4.171,-1.909 -5.707,-3.29 -4.339,-3.895 -6.317,-10.018 -6.767,-14.329 -0.34,-3.29 0.098,-5.736 0.098,-5.736" /></g><g
           transform="translate(576.3037,261.5163)"
           id="g156"><path
             id="path158"
             style="fill:#1d1d1d;fill-opacity:1;fill-rule:nonzero;stroke:none"
             d="m 0,0 c -0.228,0.131 -0.979,-0.126 -2.02,-0.412 -0.606,-0.164 -1.357,-0.296 -2.044,-0.503 -1.401,-0.422 -2.738,-0.897 -3.91,-0.843 -1.831,0.086 -1.506,1.119 -2.926,1.661 -1.249,0.475 -2.524,0.064 -3.662,-0.17 l -0.315,-0.528 c 0.615,-2.306 1.167,-5.105 1.443,-7.823 0.204,-1.967 0.214,-3.895 0.214,-5.567 0,-0.329 -0.107,-1.006 -0.165,-2.067 -0.058,-0.95 -0.058,-2.253 -0.145,-3.038 -0.092,-0.819 -0.252,-1.69 -0.383,-2.524 -0.137,-0.819 -0.31,-1.516 -0.484,-2.316 -0.305,-1.453 -0.668,-2.988 -1.202,-4.282 -1.676,-4.079 -4.059,-7.519 -5.784,-11.752 -0.654,-1.623 -1.463,-3.29 -2.287,-4.864 -0.465,-0.887 -1.1,-1.977 -1.971,-2.892 -0.775,-0.814 -1.763,-1.463 -2.432,-2.093 -0.542,-0.514 -0.931,-1.177 -1.255,-1.711 -0.775,-1.273 -1.42,-2.407 -2.19,-3.317 -0.173,-0.214 -0.425,-0.437 -0.678,-0.567 l 10.542,-0.195 c -0.194,0.088 -0.354,0.224 -0.494,0.417 -0.316,0.892 -0.776,2.408 -0.892,3.93 0.049,0.653 0.243,1.308 0.44,1.602 0.35,0.543 0.848,1.144 1.556,1.672 0.558,0.412 1.342,0.756 1.856,1.056 0.582,0.345 0.871,0.218 1.268,0.654 0.49,0.542 0.238,0.891 0.398,1.395 0.693,2.311 1.841,4.835 2.791,7.126 1.239,2.994 2.834,6.327 4.655,8.924 1.003,1.429 2.422,2.587 2.708,3.696 0.232,0.9 0.067,2.068 0.023,3.227 -0.038,0.978 0.074,1.942 0.122,2.794 0.16,2.548 0.785,4.889 1.619,7.247 0.324,0.93 0.595,1.9 1.027,2.834 0.478,1.033 1.545,3.217 2.605,5.135 C -0.804,-1.99 0.329,-0.189 0,0" /></g><g
           transform="translate(572.6074,218.5661)"
           id="g160"><path
             id="path162"
             style="fill:#1d1d1d;fill-opacity:1;fill-rule:nonzero;stroke:none"
             d="m 0,0 c 0.054,1.236 0.068,2.558 0.126,3.794 0.043,1.026 0.219,2.044 0.261,3.07 0.146,3.009 0.33,6.057 0.403,9.084 l -1.376,-0.814 c -0.51,-0.596 -2.757,-2.872 -3.27,-3.705 -0.968,-1.6 -1.874,-3.3 -2.877,-4.947 -0.863,-1.4 -1.08,-2.413 -1.522,-3.396 -0.552,-1.24 -0.78,-2.194 -1.283,-3.483 -0.339,-0.853 -0.926,-2.602 -0.999,-3.362 -0.092,-1.08 -0.271,-3.851 -0.102,-5.324 0.054,-0.455 0.102,-0.538 0.558,-0.766 2.35,-0.087 8.308,-0.067 8.308,-0.067 1.448,0.015 1.419,0.431 1.39,1.749 -0.034,1.555 0.098,2.935 0.165,4.461 C -0.17,-2.471 -0.059,-1.23 0,0" /></g><g
           transform="translate(584.9746,228.6228)"
           id="g164"><path
             id="path166"
             style="fill:#1d1d1d;fill-opacity:1;fill-rule:nonzero;stroke:none"
             d="m 0,0 c 0.292,0.572 0.499,1.129 0.756,1.551 0.514,0.847 1.298,2.073 2.247,3.328 0.936,1.25 2.03,2.523 2.737,3.43 0.373,0.469 0.824,0.866 0.655,1.337 -0.156,0.417 -0.77,0.872 -1.38,1.443 -1.028,0.978 -2.248,2.122 -2.757,2.679 -1.095,1.187 -1.971,2.709 -2.854,4.059 -1.777,2.685 -3.628,5.276 -4.766,8.415 -0.064,0.204 -0.112,0.238 -0.185,0.228 -0.068,-0.015 -0.097,-0.03 -0.179,-0.436 -0.165,-0.896 -0.31,-2.364 0.378,-4.394 0.112,-0.315 0.097,-0.703 0.213,-1.085 0.257,-0.795 0.674,-1.691 1.052,-2.641 1.018,-2.537 2.354,-5.371 3.042,-7.115 0.534,-1.391 0.566,-2.742 -0.296,-4.37 -1.182,-2.224 -2.344,-4.898 -3.647,-7.262 -0.984,-1.773 -1.977,-3.231 -2.132,-4.729 -0.155,-1.486 0.523,-3.007 1.574,-4.882 0.194,-0.344 0.282,-0.775 0.509,-1.138 0.387,-0.602 0.809,-1.512 1.037,-2.073 0.154,-0.394 0.432,-0.82 0.687,-1.207 1.033,-1.488 2.016,-2.8 2.66,-3.846 0.266,-0.432 0.621,-0.854 0.77,-1.109 0.054,-0.098 -0.018,-0.098 0.044,-0.098 0.809,0 1.337,1.09 2.175,2.238 0.445,0.62 1.517,1.856 2.209,2.762 0.228,0.29 0.369,0.575 0.258,0.833 -0.388,0.93 -3.377,0.731 -4.23,1.226 -0.33,0.198 -0.644,0.31 -0.901,0.503 -1.226,0.915 -1.686,2.015 -1.445,2.892 0.181,0.635 1.412,0.936 1.556,1.59 0.252,1.152 -1.356,1.545 -1.235,3.715 C -1.366,-2.892 -0.663,-1.332 0,0" /></g><g
           transform="translate(529.9326,314.0295)"
           id="g168"><path
             id="path170"
             style="fill:#1d1d1d;fill-opacity:1;fill-rule:nonzero;stroke:none"
             d="m 0,0 c 0.485,-0.238 0.877,-0.431 1.426,-0.635 0.725,-0.276 1.594,-0.499 2.291,-0.756 0.445,-0.17 0.973,-0.242 1.4,-0.329 0.992,-0.188 1.894,-0.257 2.984,-0.32 1.376,-0.087 4.718,-0.543 4.858,0.054 0.156,0.595 -1.012,1.496 -1.313,2.165 C 11.555,0.377 11.109,0.76 10.886,0.833 10.445,0.968 9.742,0.93 9.244,0.974 8.793,1.012 8.333,1.075 7.96,1.119 7.248,1.197 6.565,1.187 5.882,1.259 5.475,1.308 5.126,1.424 4.724,1.497 3.862,1.661 2.956,1.845 2.089,2.112 1.842,2.194 1.518,2.229 1.266,2.33 1.062,2.403 0.742,2.519 0.34,2.668 -0.3,2.906 -1.017,3.246 -1.269,2.814 -1.67,2.126 -0.778,0.368 0,0" /></g><g
           transform="translate(515.2744,338.4206)"
           id="g172"><path
             id="path174"
             style="fill:#1d1d1d;fill-opacity:1;fill-rule:nonzero;stroke:none"
             d="m 0,0 c -0.185,0.068 -0.363,0.145 -0.499,0.242 -0.61,0.426 -1.022,1.338 -1.57,1.933 -0.76,0.829 -1.647,1.371 -2.185,1.603 -0.856,0.373 -1.738,0.833 -2.659,1.139 -0.407,0.126 -0.814,0.237 -1.221,0.325 -0.47,0.096 -0.867,0.082 -1.337,0.144 -0.436,0.059 -0.833,0.161 -1.268,0.18 -0.694,0.029 -1.376,-0.111 -2.055,-0.237 -0.174,-0.025 -0.329,-0.02 -0.51,-0.053 -0.856,-0.151 -1.704,-0.354 -2.527,-0.665 -0.625,-0.236 -1.279,-0.547 -1.624,-0.576 -0.246,-0.024 -0.808,0.048 -1.535,0.213 -0.306,0.068 -0.649,0.189 -0.992,0.238 -0.684,0.092 -1.377,0.038 -2.027,0.019 -0.74,-0.028 -1.423,-0.034 -1.945,-0.126 -1.649,-0.291 -2.622,-0.761 -4.444,-1.734 -0.261,-0.145 -2.18,-1.807 -2.456,-1.88 -0.833,-0.218 -1.807,-0.057 -2.979,-0.344 -0.519,-0.13 -1.134,-0.412 -1.682,-0.489 -0.885,-0.126 -1.844,-0.596 -2.726,-1.081 -0.635,-0.353 -1.23,-0.876 -1.879,-1.428 -0.253,-0.214 -0.553,-0.407 -0.815,-0.63 -0.621,-0.543 -2.277,-2.626 -2.558,-2.78 -0.562,-0.31 -2.073,-0.519 -3.361,-0.781 -0.607,-0.121 -1.216,-0.349 -1.792,-0.523 -0.277,-0.087 -0.568,-0.082 -0.99,-0.271 -0.275,-0.18 -0.929,-0.422 -0.881,-0.644 0.029,-0.199 0.271,-0.33 0.446,-0.475 0.305,-0.247 0.674,-0.45 0.939,-0.669 0.49,-0.406 0.848,-0.911 1.337,-0.974 0.291,-0.038 1.41,0.141 2.127,0.291 0.597,0.116 1.201,0.141 1.842,0.576 0.304,0.199 0.421,0.727 0.75,0.989 0.533,0.441 0.844,0.959 1.24,1.357 0.519,0.522 1.1,0.891 1.7,1.191 0.509,0.261 1.328,0.615 2.021,0.833 0.45,0.136 0.828,0.131 1.084,0.291 0.393,0.233 0.834,0.925 1.372,1.439 0.688,0.653 1.453,1.168 1.875,1.444 1.918,1.283 3.841,2.15 6.432,2.281 0.819,0.044 1.857,-0.097 2.656,-0.184 0.455,-0.048 0.794,-0.116 1.059,-0.015 0.495,0.184 1.168,0.824 1.88,1.173 1.459,0.712 3.033,1.007 4.661,1.085 0.828,0.039 1.744,-0.107 2.548,-0.218 0.616,-0.087 1.047,-0.092 1.643,-0.252 1.036,-0.281 2.166,-0.678 3.115,-1.085 0.537,-0.233 0.948,-0.601 1.37,-0.92 0.248,-0.195 0.471,-0.403 0.829,-0.451 0.3,-0.039 0.702,0.02 1.133,0.034 1.183,0.044 2.806,0.092 4.264,-0.703 1.957,-1.07 3.264,-2.95 3.376,-3.338 0.14,-0.454 1.279,-0.92 2.349,-1.52 0.698,-0.388 1.24,-0.809 1.735,-1.226 1.338,-1.124 1.395,-1.696 2.092,-2.674 1.023,-1.434 1.483,-3.002 2.158,-4.847 0.523,-1.432 0.13,-4.496 0.13,-6.487 0,-2.738 3.358,-3.879 2.869,-3.423 -0.49,0.457 -1.696,2.869 -0.554,3.912 1.141,1.043 0.257,5.065 0.257,5.065 -0.437,1.827 -0.974,3.803 -1.386,5.126 -0.078,0.227 -0.319,0.809 -0.401,1.085 C 10.096,-8.468 9.466,-7.213 8.676,-6.08 7.916,-4.98 7,-3.992 6.414,-3.391 5.978,-2.936 3.439,-1.149 1.71,-0.465 1.288,-0.3 0.562,-0.194 0,0" /></g><g
           transform="translate(542.1123,310.5803)"
           id="g176"><path
             id="path178"
             style="fill:#1d1d1d;fill-opacity:1;fill-rule:nonzero;stroke:none"
             d="m 0,0 c -1.236,0.019 -2.514,-0.01 -3.658,0.111 -1.105,0.131 -2.993,0.461 -4.509,0.756 -1.202,0.228 -1.938,0.644 -2.423,0.286 -0.649,-0.48 1.715,-2.883 2.615,-3.319 2.133,-1.051 4.492,-0.717 6.628,-0.906 C -0.78,-3.125 1.638,-3.42 2.897,-3.164 3.943,-2.95 3.493,-0.581 2.01,-0.146 1.366,0.048 0.702,-0.01 0,0" /></g><g
           transform="translate(495.7812,297.2868)"
           id="g180"><path
             id="path182"
             style="fill:#1d1d1d;fill-opacity:1;fill-rule:nonzero;stroke:none"
             d="m 0,0 c -2.459,-0.113 -5.285,-0.201 -7.661,-0.068 0.152,1.149 0.25,2.093 0.248,2.631 -10e-4,0.244 0.665,0.925 0.965,1.255 0.547,0.615 1.075,1.332 1.346,1.831 0.93,1.691 1.138,3.87 1.11,6.162 -0.034,2.534 -0.383,5.188 -0.979,7.261 -0.184,0.645 -0.955,1.696 -0.955,1.696 -1.535,1.541 -0.812,2.311 0.636,2.602 0.604,0.115 1.326,-0.325 1.923,-1.11 1.224,-1.637 2.189,-3.992 2.412,-5.968 0.286,-2.504 0.131,-2.335 0.335,-4.767 C -0.48,9.786 -1.274,7.47 -0.718,6.419 -0.355,5.737 0.854,3.855 1.194,2.599 L 2.243,0.062 C 1.436,0.047 0.704,0.031 0,0 m -18.865,-11.471 c -2.468,0.528 -1.217,3.731 0.805,2.476 1.366,-0.854 1.258,-2.921 -0.805,-2.476 m -4.328,21.087 c 0,-0.005 -10e-4,-0.009 -0.002,-0.014 l 0,0.115 c -0.002,-0.035 0.004,-0.066 0.002,-0.101 0.314,3.638 4.747,2.135 4.41,-0.508 -0.341,-2.675 -4.51,-2.735 -4.41,0.508 m 44.774,-57.904 c 0.33,-1.013 0.625,-2.137 1.042,-3.362 0.445,-1.265 0.75,-2.631 1.196,-3.939 0.635,-1.846 1.357,-3.648 1.734,-5.488 0.596,-2.97 0.868,-2.747 1.366,-5.702 0.006,0.199 0.684,-2.461 0.868,-3.139 0.208,-1.101 0.653,-2.94 0.817,-4.568 0.113,-1.003 0.054,-1.861 -0.018,-2.602 -0.058,-0.64 -0.329,-1.206 -0.48,-1.807 -0.552,-2.185 -1.25,-3.594 -1.71,-4.432 -0.47,-0.843 -1.089,-1.556 -1.565,-2.427 -0.333,-0.611 -0.727,-1.057 -1.06,-1.691 -0.252,-0.475 -0.747,-1.415 -1.226,-2.243 -0.368,-0.616 -0.597,-1.041 -0.817,-1.192 l 10.675,-0.198 c -0.067,0.144 -0.135,0.29 -0.209,0.455 -0.237,0.548 -0.6,1.613 -0.697,2.044 -0.208,0.959 -0.561,1.691 -0.697,2.389 -0.252,1.327 -0.115,2.335 0.265,3.177 0.166,0.359 0.466,0.688 0.723,1.1 0.286,0.466 0.572,0.964 0.944,1.424 0.373,0.475 0.859,0.906 1.052,1.472 0.223,0.626 0.135,1.808 0.049,2.747 -0.02,0.228 -0.093,0.48 -0.117,0.718 -0.184,1.511 -0.475,3.124 -0.843,5.135 -0.227,1.216 -0.349,3.783 -0.46,4.907 -0.238,2.48 -0.402,5.053 -0.601,7.732 -0.024,0.291 -0.024,1.312 -0.048,1.613 -0.315,4.069 -0.068,6.763 0.504,11.389 0.15,1.187 0.726,2.804 0.988,3.779 0.189,0.706 0.32,1.462 0.605,2.219 0.112,0.299 0.301,0.556 0.432,0.885 0.213,0.534 0.247,1.124 0.46,1.663 0.78,1.996 1.764,3.996 2.723,5.856 0.343,0.668 0.837,3.12 1.947,3.992 0.745,0.591 1.899,0.267 2.554,-1.08 0.168,-0.358 -0.394,-1.536 -1.013,-2.698 -0.325,-0.602 -0.698,-1.163 -0.917,-1.692 -0.59,-1.355 -1.486,-2.257 -0.75,-2.64 1.496,-0.101 2.863,-0.063 4.22,-0.024 1.51,0.035 2.906,0.01 4.311,0.024 2.752,0.015 5.348,0.006 8.139,0.263 0.509,0.047 1.06,0.019 1.589,0.096 1.602,0.233 2.924,0.373 4.049,0.532 2.311,0.33 3.755,0.578 4.975,0.722 1.096,0.117 1.986,0.253 3.28,0.214 0.432,-0.01 1.027,-0.301 1.511,-0.693 0.727,-0.585 1.124,-0.925 1.566,-0.824 0.807,0.184 1.598,0.339 2.359,0.504 1.007,0.218 1.985,0.402 2.848,0.65 0.794,0.237 1.608,0.324 2.049,0.63 0.271,0.193 -0.111,0.808 -0.63,1.25 -0.377,0.329 -0.848,0.527 -1.105,0.581 -1.807,0.329 -2.63,-0.097 -3.642,1.588 -0.199,0.333 -0.426,1.269 0.775,1.584 1.177,0.315 2.233,0.174 3.925,-0.382 2.077,-0.679 3.283,-2.278 4.504,-4.114 0.668,-1.021 0.95,-2.107 1.274,-3.201 0.344,-1.168 0.723,-2.335 1.013,-3.493 0.208,-0.833 0.353,-1.647 0.721,-2.436 0.674,-1.43 1.032,-2.825 1.704,-4.022 1.372,-2.431 3.572,-5.812 6.963,-8.405 1.898,-1.443 3.368,-2.993 4.937,-4.718 0.838,-0.921 1.482,-1.923 2.093,-2.936 0.468,-0.769 0.76,-1.593 0.963,-2.528 0.339,-1.536 0.533,-3.092 0.698,-4.671 0.14,-1.263 0.416,-2.528 0.528,-3.778 0.072,-0.668 0.382,-1.618 0.368,-2.34 -0.068,-3.037 0.663,-5.266 0.576,-7.634 -0.023,-0.625 -0.823,-2.491 -1.637,-3.803 -0.179,-0.287 -0.334,-0.63 -0.581,-0.868 -0.65,-0.629 -1.245,-0.905 -2.093,-1.492 -0.62,-0.435 -1.1,-1.177 -1.439,-1.685 -0.31,-0.452 -0.649,-0.828 -0.993,-1.323 -0.209,-0.523 -0.562,-0.906 -0.891,-1.08 l 11.35,-0.214 c -1.138,0.228 -0.994,1.047 -1.023,1.939 -0.019,0.615 -0.037,1.245 -0.072,1.83 -0.019,0.238 0.025,0.77 0.025,1.013 0,0.441 0.116,1.473 0.289,1.982 0.253,0.721 0.471,1.704 0.896,2.427 0.791,1.371 1.765,2.533 1.905,3.438 0.17,1.188 -0.601,3.271 -1.017,5.015 -0.199,0.828 -0.518,4.171 -0.582,5.004 -0.093,1.381 -0.401,3.004 -0.382,4.385 0.024,1.384 0.382,2.528 0.581,3.899 0.024,0.19 0.19,0.629 0.237,0.867 0.097,0.519 0.035,1.216 -0.047,1.638 -0.156,0.809 -0.665,1.385 -1.11,2.073 -0.436,0.688 -0.824,1.477 -1.246,2.122 -0.823,1.244 -1.254,2.689 -2.363,5.004 -0.466,0.979 -0.916,2.034 -1.352,3.129 -0.567,1.454 -0.945,3.043 -0.959,4.671 -0.009,1.845 0.441,3.87 1.012,5.395 0.712,1.895 2.519,4.714 3.75,7.612 1.162,2.703 1.913,5.561 2.17,6.355 0.659,2.034 0.815,5.441 0.626,7.843 -0.112,1.409 -0.335,2.567 -0.573,3.716 -0.121,0.552 -0.063,1.085 -0.344,1.69 -0.145,0.34 -0.101,0.635 -0.232,1.057 -0.092,0.286 -0.364,0.678 -0.489,0.977 -0.446,1.077 -0.96,2.138 -0.577,2.487 0.94,0.872 5.953,1.864 8.167,-1.298 2.341,-3.363 1.304,-7.752 0.403,-10.349 -1.168,-3.342 -2.543,-6.971 -3.081,-10.565 -0.238,-1.628 -0.248,-2.921 0.621,-4.622 0.663,-1.307 1.506,-2.712 1.545,-4.32 0.076,-2.777 -2.791,-3.857 -2.743,-6.797 0.03,-1.662 1.589,-4.428 3.905,-4.331 0.178,0.464 -0.199,0.837 -0.15,1.25 0.15,1.152 -0.029,2.199 0.537,3.419 1.285,2.81 2.597,2.893 3.222,3.325 1.841,1.273 5.023,2.664 5.153,5.056 0.049,0.911 0.016,1.754 -0.246,2.791 -0.397,1.603 -0.886,2.634 -1.22,3.396 -0.325,0.731 -0.829,1.394 -0.892,2.388 -0.039,0.49 0.126,1.056 0.242,1.589 0.165,0.785 0.388,1.72 0.756,2.456 0.533,1.046 1.352,1.832 2.927,5.813 0.653,1.657 0.876,3.061 0.973,4.118 0.087,0.906 0.024,1.89 0.034,2.708 0.034,2.093 -0.872,4.268 -1.657,5.857 -0.291,0.586 -0.708,1.158 -1.521,1.879 -0.94,0.819 -2.316,1.793 -3.037,2.234 -0.509,0.32 -0.979,0.368 -1.473,0.542 -2.31,0.819 -4.554,0.756 -7.621,-0.29 C 112.51,0.95 111.435,0.543 110.47,0 c -1.57,-0.886 -2.916,-1.87 -3.978,-1.628 -0.944,0.229 -1.903,1.827 -2.635,2.462 -0.89,0.779 -2.151,1.656 -3.182,1.981 C 98.398,3.537 97.443,4.012 95.08,4.336 93.002,4.617 91.088,4.477 89.155,4.296 87.402,4.137 85.629,3.973 83.812,3.793 82.063,3.619 80.304,3.207 78.574,2.999 77.189,2.83 75.887,2.675 74.511,2.52 72.054,2.249 69.104,1.865 66.557,1.501 65.868,1.405 65.354,1.424 64.705,1.337 63.267,1.139 62.21,1.187 60.807,1.246 60.157,1.265 59.439,1.372 58.582,1.312 l -0.01,0.045 c -0.92,0.097 -3.526,0.387 -3.861,0.484 -0.333,0.097 -1.928,0.193 -2.407,0.388 l -4.06,0.815 c 1.317,0.687 2.567,1.535 3.507,2.518 2.534,2.635 4.002,7.15 1.822,10.545 -0.325,0.524 -0.795,0.858 -1.313,1.338 -0.737,0.688 -2.17,1.671 -3.172,1.822 -0.466,0.077 -0.916,0.129 -1.27,0.038 -0.494,-0.121 -0.814,-0.465 -0.886,-0.867 -0.043,-0.257 -0.039,-0.591 0.199,-0.939 0.552,-0.81 1.743,-1.241 2.717,-1.963 0.634,-0.484 1.187,-1.148 1.385,-1.937 0.025,-0.093 0.039,-0.243 0.053,-0.345 0.18,-1.022 0.005,-2.01 -0.309,-2.925 C 50.463,8.803 49.44,7.49 48.108,6.574 46.699,5.61 45.973,5.203 44.529,4.728 43.832,4.503 43.194,4.293 42.548,4.107 35.322,4.005 30.731,11.86 26.997,17.009 c -0.62,0.853 -1.855,2.374 -3.076,3.943 -0.838,1.086 -1.599,2.224 -2.412,3.067 -1.284,1.327 -2.534,2.49 -3.474,3.105 -1.308,0.867 -2.431,1.777 -3.976,2.495 -1.837,0.862 -3.842,1.7 -5.737,2.383 -1.376,0.495 -3.105,0.906 -4.573,1.187 -0.645,0.131 -1.492,0.417 -2.258,0.582 -0.751,0.168 -1.433,0.212 -1.875,0.411 -0.426,0.194 -0.668,0.315 -0.833,0.533 -0.416,0.538 -0.14,1.182 0.833,1.312 1.715,0.233 4.883,0.015 5.761,-0.164 0.644,-0.126 1.409,-0.146 2.049,-0.261 0.979,-0.17 1.811,-0.441 2.732,-0.718 2.442,-0.74 4.786,-1.923 7.015,-3.1 0.479,-0.261 1.008,-0.745 1.433,-1.017 1.275,-0.819 2.258,-1.594 3.495,-2.776 1.049,-1.008 2.024,-2.098 2.987,-3.241 0.171,-0.203 0.78,-1.017 1.061,-0.926 0.277,0.089 -0.237,1.057 -0.291,1.367 -0.649,1.749 -2.209,5.009 -3.899,6.569 -1.666,1.535 -3.245,1.313 -3.745,1.617 -0.285,0.18 -0.426,0.65 -0.514,1.206 -0.092,0.646 -0.702,1.648 -1.875,2.428 -1.481,0.993 -3.245,0.16 -4.814,0.46 -0.611,0.116 -1.517,0.839 -2.577,1.396 -0.722,0.373 -1.376,0.605 -2.113,0.828 -1.376,0.412 -3.449,0.426 -4.772,0.359 -2.136,-0.107 -3.444,-1.823 -4.747,-2.51 -0.479,-0.252 -1.051,0.213 -1.753,0.403 -0.814,0.217 -1.87,0.198 -2.616,0.139 -1.846,-0.139 -3.725,-1.075 -5.184,-2.117 -1.701,-1.206 -1.792,-2.252 -2.819,-2.741 -0.184,-0.087 -0.93,-0.122 -1.134,-0.179 -1.573,-0.451 -2.102,-0.722 -3.449,-1.73 -0.784,-0.596 -1.356,-1.802 -1.847,-2.422 -0.221,-0.286 -0.454,-0.431 -0.614,-0.441 -0.329,-0.034 -1.836,-0.048 -3.111,-0.174 -0.712,-0.073 -1.254,-0.209 -1.723,-0.349 -0.872,-0.248 -1.532,-0.571 -1.536,-0.829 -0.005,-0.629 3.381,-1.419 2.408,-1.162 -0.224,0.063 1.007,-0.184 1.854,-0.558 0.325,-0.14 0.684,-0.387 0.81,-0.532 0.242,-0.31 0.329,-0.703 0.427,-1.158 0.139,-0.567 0.246,-1.24 0.203,-2.092 -0.098,-1.992 -0.906,-4.457 -1.333,-6.759 -0.159,-0.833 -0.185,-1.671 -0.217,-2.422 -0.034,-0.61 -0.097,-1.632 -0.068,-2.253 0.154,-3.056 1.656,-5.11 2.339,-8.903 0.025,-0.146 0.169,-2.316 0.325,-3.183 0.266,-1.405 0.325,-2.999 0.363,-4.477 0.025,-0.735 -0.324,-1.554 -0.324,-2.31 0,-2.78 1.143,-4.636 3.177,-5.058 0.679,-0.135 1.406,-0.451 2.321,0.092 1.42,0.854 1.415,2.137 1.472,3.41 0.02,0.476 -0.047,0.98 0.112,1.41 0.857,2.456 2.495,2.069 2.882,1.914 0.994,-0.392 0.96,-1.318 1.018,-1.841 0.092,-0.871 -0.402,-2.199 -0.509,-3.105 -0.179,-1.555 0.325,-2.132 1.449,-1.225 0.474,0.382 0.339,1.213 0.751,1.908 0,0 0.774,4.115 1.384,7.924 0.035,0.013 0.069,0.028 0.108,0.041 0.571,0.173 1.196,0.106 1.709,0.111 2.563,0.014 5.199,0.058 7.801,0.179 0.661,0.032 1.313,0.061 1.97,0.092 l 0.688,-1.665 c 0.717,-1.119 1.681,-4.066 2.2,-5.339 1.157,-2.865 1.666,-6.037 2.388,-9.181 0.155,-0.684 0.155,-1.424 0.242,-2.127 0.34,-2.519 0.475,-5.062 0.983,-7.481 0.339,-1.621 0.746,-2.464 1.299,-3.462 0.988,-1.788 2.892,-3.468 6.143,-6.791 1.129,-1.159 1.554,-2.719 2.31,-4.264 0.243,-0.494 0.272,-1.09 0.471,-1.622 0.314,-0.854 0.915,-2.03 1.409,-3.503" /></g><g
           transform="translate(504.791,238.6218)"
           id="g184"><path
             id="path186"
             style="fill:#1d1d1d;fill-opacity:1;fill-rule:nonzero;stroke:none"
             d="m 0,0 c 0.368,-2.016 0.854,-4.505 1.202,-6.961 0.285,-2.001 0.397,-3.992 1.017,-5.542 0.325,-0.828 1.086,-1.507 1.633,-2.165 1.171,-1.41 2.46,-2.573 3.652,-3.891 0.112,-0.13 0.262,-0.208 0.359,-0.247 0.107,-0.029 0.228,0.078 0.377,0.3 0.48,0.703 1.173,2.176 1.754,3.74 0.141,0.305 0.184,0.475 0.31,0.761 0.495,1.109 0.998,2.093 0.809,2.461 -0.233,0.436 -1.003,0.432 -1.87,0.436 -0.581,0.004 -1.269,0.238 -1.875,0.291 -0.668,0.058 -1.371,0.451 -1.763,0.741 -1.225,0.896 -1.099,2.015 -0.638,2.97 0.135,0.305 0.861,1.201 0.716,1.971 C 5.46,-3.934 4.908,-2.868 4.53,-1.661 4.278,-0.882 4.268,-0.01 4.142,0.838 4.012,1.682 3.76,2.5 3.803,3.343 3.871,4.481 3.954,5.353 4.496,6.021 5.295,6.995 6.573,7.218 7.849,7.674 8.415,7.878 9.292,8.158 9.49,8.594 L 9.583,9.025 C 9.515,9.582 9.331,9.956 9.137,10.411 8.986,10.784 8.855,11.238 8.574,11.621 8.052,11.676 7.688,11.384 7.175,11.19 6.211,10.837 5.097,10.396 4.19,10.081 3.343,9.79 2.001,9.263 0.916,8.734 0.02,8.304 -0.649,7.872 -1.26,7.533 -2.054,7.083 -1.764,6.008 -1.298,4.544 -0.867,3.179 -0.266,1.463 0,0" /></g><g
           transform="translate(499.4863,248.4216)"
           id="g188"><path
             id="path190"
             style="fill:#1d1d1d;fill-opacity:1;fill-rule:nonzero;stroke:none"
             d="m 0,0 c 1.003,0.456 2.025,0.901 3.071,1.353 2.33,0.997 4.893,1.632 7.185,2.538 0.736,0.3 1.269,0.446 1.652,0.731 0.354,0.247 0.65,0.334 0.614,0.756 C 12.509,5.619 12.28,5.964 12.097,6.386 11.961,6.7 11.903,7.06 11.694,7.374 11.225,8.081 10.596,8.459 10.218,8.808 9.539,9.433 8.938,10.081 8.294,10.682 7.471,11.448 6.594,12.741 5.954,12.964 5.668,13.061 4.079,12.13 2.229,10.726 1.589,10.232 0.839,9.854 0.103,9.345 -0.45,8.968 -0.993,8.463 -1.56,8.048 -2.489,7.364 -3.443,6.769 -4.374,6.065 -5.154,5.475 -6.06,4.932 -6.83,4.38 -7.155,4.138 -7.456,3.891 -7.697,3.648 -8.234,3.091 -8.754,2.641 -9.001,2.016 c -0.503,-1.26 -0.358,-3.285 0.253,-5.596 0.388,-1.434 0.47,-3.434 0.765,-5.057 0.324,-1.831 0.572,-3.56 0.538,-4.229 -0.048,-0.954 -0.136,-2.481 -0.214,-3.793 -0.038,-0.572 0.024,-1.167 -0.077,-1.55 -0.519,-2.011 -0.755,-4.143 -0.403,-5.853 0.47,-2.145 2.103,-4.877 3.871,-7.038 0.596,-0.838 0.994,-1.691 1.478,-2.025 0.843,0.857 1.52,2.063 2.495,3.43 0.47,0.663 0.785,1.187 1.085,1.729 0.184,0.339 0.422,0.693 0.509,1.052 0.058,0.28 -0.311,0.745 -0.906,1.007 -0.673,0.309 -1.633,0.412 -2.456,0.911 -1.545,0.925 -2.679,2.388 -1.953,3.536 0.829,1.308 1.861,1.502 2.2,2.098 0.266,0.445 0.018,1.181 -0.426,2.272 -0.548,1.298 -0.732,3.638 -0.616,5.914 0.131,2.646 -0.852,6.977 0.324,9.51 C -2.111,-0.761 -0.93,-0.426 0,0" /></g><g
           transform="translate(470.6426,289.5456)"
           id="g192"><path
             id="path194"
             style="fill:#1d1d1d;fill-opacity:1;fill-rule:nonzero;stroke:none"
             d="m 0,0 c 0.021,0.407 0.132,1.749 0.098,2.166 -0.151,2.495 -0.195,4.597 -0.62,6.598 -0.252,1.167 -0.771,2.31 -1.158,3.463 -0.189,0.572 -0.199,1.531 -0.824,2.074 -0.396,0.348 -0.934,0.459 -1.245,0.577 -0.838,0.324 -1.234,0.817 -1.589,1.733 -0.349,0.897 0.03,1.861 0.771,2.505 0.49,0.436 1.302,0.586 1.536,1.012 0.231,0.422 0.145,0.955 0.339,1.686 0.784,2.96 1.975,7.707 1.152,8.672 -0.213,0.256 -0.688,0.407 -1.255,0.567 -0.416,0.116 -0.882,0.232 -1.342,0.392 -1.152,0.402 -2.968,1.526 -3.662,2.025 -0.527,0.383 -3.061,-1.051 -2.553,-1.401 0.233,-0.15 1.429,-0.329 2.607,-0.818 1.463,-0.6 2.955,-1.599 3.222,-2.553 0.314,-1.129 -0.417,-5.406 -0.771,-6.545 -0.393,-1.259 -0.736,-2.47 -0.867,-3.662 -0.068,-0.572 -0.18,-1.056 -0.049,-1.681 0.039,-0.203 -0.062,-0.324 0,-0.538 0.383,-1.245 1.284,-2.325 1.88,-3.561 0.232,-0.464 0.078,-1.346 0.193,-1.831 C -3.656,8.764 -3.371,6.884 -3.371,4.864 -3.371,4.025 -3.58,3.091 -3.7,2.122 -3.798,1.386 -3.769,0.635 -3.942,-0.097 -4.33,-1.69 -4.233,-2.485 -3.802,-3.42 -2.818,-5.581 -0.082,-5.963 0,-4.917 c 0.151,1.788 -1.472,1.125 -1.985,1.899 -0.422,0.659 -0.897,1.138 -0.272,2.296 C -1.894,-0.039 -0.687,-0.049 0,0" /></g><g
           transform="translate(523.1025,191.9802)"
           id="g196"><path
             id="path198"
             style="fill:#1d1d1d;fill-opacity:1;fill-rule:nonzero;stroke:none"
             d="m 0,0 c 2.04,-1.322 4.375,-2.432 6.879,-2.432 2.011,0 4.22,0.915 6.235,2.394 1.696,1.23 2.795,2.485 4.5,3.812 0.79,0.611 0.771,0.586 1.803,0.683 1.119,0.112 1.918,-0.005 3.148,-0.005 0.063,0 0.606,-0.01 0.722,0.082 0.111,0.087 -0.053,0.432 -0.18,0.602 C 21.451,7.252 19.679,7.219 18.094,7.175 12.649,7.034 10.891,2.655 7.034,2.146 4.961,1.865 1.27,2.757 -0.634,3.474 -2.339,4.108 -5.426,5.624 -5.629,5.779 -5.794,5.896 -6.002,5.712 -5.77,5.421 -5.537,5.115 -1.764,1.158 0,0" /></g><g
           transform="translate(547.5859,190.9489)"
           id="g200"><path
             id="path202"
             style="fill:#1d1d1d;fill-opacity:1;fill-rule:nonzero;stroke:none"
             d="M 0,0 C 0.853,0.059 2.287,2.116 2.572,2.567 2.747,2.844 2.655,2.97 2.359,3.037 2.064,3.109 -1.656,3.353 -3.275,2.96 -4.296,2.713 -7.488,0.74 -7.102,0.285 -6.636,-0.262 -1.399,-0.093 0,0" /></g><g
           transform="translate(548.4092,184.7038)"
           id="g204"><path
             id="path206"
             style="fill:#1d1d1d;fill-opacity:1;fill-rule:nonzero;stroke:none"
             d="m 0,0 c 4.777,-0.522 8.512,3.726 11.501,7.01 1.603,1.763 2.82,3.139 5.847,4.321 1.173,0.46 2.413,0.185 3.677,0.218 0.964,0.024 0.794,0.354 -0.494,1.264 -1.637,1.159 -2.999,1.299 -4.743,1.313 C 14.321,14.146 12.896,13.743 11.777,13.4 9.815,12.813 8.032,11.506 6.478,10.004 4.874,8.454 3.707,6.355 2.074,4.854 1.115,3.992 0.877,3.527 -1.293,3.609 -2.319,3.644 -4.635,3.668 -4.801,3.469 -4.97,3.266 -4.674,2.819 -4.674,2.819 -3.43,1.367 -2.17,0.238 0,0" /></g><g
           transform="translate(568.6641,190.6198)"
           id="g208"><path
             id="path210"
             style="fill:#1d1d1d;fill-opacity:1;fill-rule:nonzero;stroke:none"
             d="M 0,0 C 0.311,-0.006 1.138,-0.088 1.614,0.266 2.068,0.604 4.239,2.223 4.186,2.697 4.161,2.91 2.911,2.921 1.4,2.949 0.412,2.965 -0.814,3.1 -1.643,2.916 -3.832,2.431 -4.937,0.687 -4.984,0.596 -5.092,0.396 -5.066,0.338 -4.932,0.218 -4.796,0.092 -1.201,0.024 0,0" /></g><g
           transform="translate(593.2295,193.1579)"
           id="g212"><path
             id="path214"
             style="fill:#1d1d1d;fill-opacity:1;fill-rule:nonzero;stroke:none"
             d="M 0,0 C -0.188,0.106 -1.143,0.097 -2.209,0.121 -3.022,0.136 -3.914,0.218 -4.5,0.067 c -1.114,-0.28 -2.844,-2.407 -2.94,-2.673 -0.088,-0.262 -0.213,-0.413 0.242,-0.524 0.46,-0.126 3.415,-0.198 5.154,-0.223 1.017,-0.009 2.011,-0.212 2.19,0.243 0.212,0.533 0.194,1.182 0.194,1.734 C 0.34,-0.712 0.311,-0.179 0,0" /></g><g
           transform="translate(609.7295,195.3474)"
           id="g216"><path
             id="path218"
             style="fill:#1d1d1d;fill-opacity:1;fill-rule:nonzero;stroke:none"
             d="M 0,0 C 1.473,0.456 4.815,0.509 4.38,1.104 3.847,1.836 2.359,2.33 0.484,2.523 -0.605,2.641 -1.43,2.669 -2.601,2.577 -4.868,2.384 -7.339,1.662 -9.679,1.656 c -2.315,0 -4.505,0.8 -6.798,1.352 -2.779,0.67 -5.599,0.97 -8.428,0.068 -3.875,-1.221 -6.292,-3.439 -9.126,-6.317 -1.299,-1.314 -2.53,-2.993 -4.186,-3.648 -1.768,-0.697 -5.27,-0.213 -6.109,-0.291 -0.212,-0.018 -0.726,-0.096 -0.726,-0.096 -0.77,-0.625 2.626,-3.178 4.451,-3.44 1.406,-0.204 4.579,-0.256 6.526,0.746 4.059,2.078 6.186,5.706 9.577,8.856 1.599,1.502 3.135,2.412 6.095,2.151 2.765,-0.248 5.13,-1.42 7.518,-2.364 1.928,-0.756 3.566,-1.517 5.886,-1.865 0.368,-0.054 0.722,-0.175 1.124,-0.228 1.057,-0.145 4.84,-0.601 7.024,0.315 0.349,0.14 1.007,0.562 1.017,0.867 0.024,0.625 -4.81,0.063 -4.602,1.56 C -0.396,-0.436 -0.32,-0.102 0,0" /></g><g
           transform="translate(616.7861,195.2663)"
           id="g220"><path
             id="path222"
             style="fill:#1d1d1d;fill-opacity:1;fill-rule:nonzero;stroke:none"
             d="m 0,0 c -0.967,-0.133 -1.77,-0.205 -2.007,-0.399 -0.237,-0.238 -0.02,-0.434 0.154,-0.465 0.216,-0.032 1.092,-0.197 2.027,-0.391 1.523,-0.309 3.255,-0.72 3.067,0.74 C 3.117,0.546 1.401,0.186 0,0" /></g><g
           transform="translate(652.418,241.6257)"
           id="g224"><path
             id="path226"
             style="fill:#1d1d1d;fill-opacity:1;fill-rule:nonzero;stroke:none"
             d="m 0,0 c 0.237,-1.454 0.615,-1.996 1.651,-2.243 0.297,-0.072 0.849,0 1.44,0.053 0.648,0.068 1.351,0.116 1.812,0.338 C 5.586,-1.531 3.794,1.821 2.111,4.365 0.921,6.156 -0.136,7.509 -0.538,7.281 -0.789,7.141 -0.684,6.442 -0.644,5.585 -0.591,4.49 -0.378,3.086 -0.213,1.865 -0.125,1.144 -0.082,0.475 0,0" /></g><g
           transform="translate(638.3252,243.5056)"
           id="g228"><path
             id="path230"
             style="fill:#1d1d1d;fill-opacity:1;fill-rule:nonzero;stroke:none"
             d="m 0,0 c 0.059,-0.548 0.068,-1.798 0.166,-2.868 0.072,-0.828 0.382,-1.042 1.075,-1.037 0.789,0.009 0.886,0.222 1.013,1.037 0.184,1.152 0.207,2.945 0.339,4.151 0.101,1.046 0.155,2.49 0.304,3.866 0.112,0.94 0.345,1.84 0.379,2.548 C 3.3,8.468 3.334,8.951 3.121,9.078 2.578,9.397 -0.76,9.402 -0.867,8.714 -0.943,8.278 -0.755,7.518 -0.648,6.719 -0.537,5.837 -0.493,4.922 -0.406,4.335 -0.198,2.853 -0.154,1.442 0,0" /></g><g
           transform="translate(633.7529,234.3493)"
           id="g232"><path
             id="path234"
             style="fill:#1d1d1d;fill-opacity:1;fill-rule:nonzero;stroke:none"
             d="M 0,0 C -0.247,0.198 -0.804,0.208 -1.332,0.242 -1.86,0.276 -2.373,0.335 -2.688,0.35 -3.925,0.407 -4.955,0.528 -6.085,0.669 -6.462,0.712 -6.869,0.625 -7.271,0.741 c -0.776,0.223 -1.915,0.306 -2.81,0.388 -0.722,0.072 -1.366,0.261 -1.813,-0.112 -0.169,-0.135 -0.149,-0.518 -0.203,-0.644 -0.184,-0.422 -0.232,-1.057 -0.247,-1.851 -0.014,-1.318 0.185,-2.538 0.426,-2.645 0.307,-0.141 1.808,0.301 2.762,0.553 1.052,0.28 2.068,0.304 3.071,0.445 0.523,0.077 1.279,0.121 2.064,0.223 0.514,0.063 1.012,0.174 1.545,0.218 1.275,0.117 2.525,0.161 2.625,0.315 0.209,0.34 0.2,1.099 0.136,1.595 C 0.232,-0.475 0.252,-0.204 0,0" /></g><g
           transform="translate(635.2539,242.4929)"
           id="g236"><path
             id="path238"
             style="fill:#1d1d1d;fill-opacity:1;fill-rule:nonzero;stroke:none"
             d="m 0,0 c -0.101,1.075 -0.106,2.219 -0.203,3.347 -0.184,2.084 -0.523,4.157 -1.149,5.92 l -0.096,0.126 c -0.46,0.799 -3.057,-0.29 -3.769,-0.94 -0.257,-0.233 -0.222,-1.075 -0.188,-2.02 0.024,-0.495 0,-1.041 0.038,-1.496 0.276,-2.97 0.204,-8.697 0.741,-9.05 0.286,-0.195 1.23,-0.165 2.286,-0.146 0.888,0.015 1.891,-0.038 2.264,0.355 C 0.364,-3.445 0.103,-1.163 0,0" /></g><g
           transform="translate(639.8564,235.4978)"
           id="g240"><path
             id="path242"
             style="fill:#1d1d1d;fill-opacity:1;fill-rule:nonzero;stroke:none"
             d="M 0,0 C 1.773,-0.8 1.076,-3.773 -1.138,-3.125 -3.425,-2.457 -2.34,1.056 0,0 m -0.015,-4.53 c 3.654,0.63 2.96,6.211 -0.702,5.997 -4.418,-0.271 -3.594,-6.738 0.702,-5.997" /></g><g
           transform="translate(638.3604,213.572)"
           id="g244"><path
             id="path246"
             style="fill:#1d1d1d;fill-opacity:1;fill-rule:nonzero;stroke:none"
             d="M 0,0 C 0.387,-0.015 0.833,-0.048 1.404,-0.068 2.15,-0.097 2.926,-0.059 3.521,-0.02 3.826,0.004 4.127,-0.024 4.253,0.058 4.568,0.267 4.441,1.225 4.166,2.315 3.967,3.076 3.909,3.929 3.826,4.51 3.58,6.312 3.289,7.998 3.148,9.994 c -0.073,0.91 -0.183,2.402 -0.407,3.42 -0.165,0.493 -0.121,0.905 -0.785,0.891 0,0 -2.024,0.053 -2.164,-0.242 C -0.476,13.443 -0.393,8.458 -0.479,7.455 -0.558,6.627 -0.605,6.084 -0.702,5.047 -0.911,2.804 -1.318,0.571 -1.26,0.388 -1.129,0.049 -0.693,0.024 0,0" /></g><g
           transform="translate(646.3535,238.4187)"
           id="g248"><path
             id="path250"
             style="fill:#1d1d1d;fill-opacity:1;fill-rule:nonzero;stroke:none"
             d="m 0,0 c 0.528,0.062 1.211,0.015 1.627,0.077 0.48,0.072 0.654,0.272 0.654,0.572 0,1.318 -0.155,2.403 -0.188,3.221 -0.098,2.287 -0.152,4.796 -0.224,6.589 -0.028,0.62 0.029,2.029 -0.242,2.79 -0.102,0.286 -0.339,0.393 -0.553,0.519 -0.352,0.204 -0.774,0.329 -1.331,0.387 -0.456,0.044 -0.659,-0.644 -0.838,-1.41 -0.117,-0.494 -0.276,-1.013 -0.33,-1.438 C -1.502,10.691 -1.662,10.037 -1.778,9.476 -2.016,8.298 -2.19,7.185 -2.296,5.905 -2.36,5.125 -2.587,3.942 -2.611,3.338 -2.646,2.18 -2.839,0.383 -2.428,0.077 -2.225,-0.073 -1.129,-0.126 0,0" /></g><g
           transform="translate(645.209,232.2038)"
           id="g252"><path
             id="path254"
             style="fill:#1d1d1d;fill-opacity:1;fill-rule:nonzero;stroke:none"
             d="m 0,0 c 0.209,-0.151 1.643,-0.16 3.121,-0.224 0.93,-0.034 1.84,-0.13 2.571,-0.165 1.182,-0.048 2.34,-0.091 3.431,-0.242 0.523,-0.067 1.54,-0.174 2.416,-0.256 0.641,-0.059 1.222,-0.132 1.532,-0.014 0.431,0.15 0.576,1.181 0.46,2.382 C 13.376,2.813 13.444,3.646 12.688,3.7 12.378,3.725 11.215,3.419 9.912,3.201 8.163,2.911 6.235,2.775 5.358,2.635 5,2.576 4.341,2.543 3.658,2.46 3.039,2.388 2.398,2.267 1.794,2.223 0.649,2.141 -0.188,2.092 -0.227,1.607 -0.289,0.722 -0.343,0.252 0,0" /></g><g
           transform="translate(661.6562,305.1154)"
           id="g256"><path
             id="path258"
             style="fill:#1d1d1d;fill-opacity:1;fill-rule:nonzero;stroke:none"
             d="m 0,0 c -1.356,1.255 -2.568,2.708 -4.002,3.905 -1.903,1.584 -3.139,2.839 -4.592,4.083 -0.548,0.466 -1.055,1.037 -1.667,1.497 -0.725,0.553 -1.564,1.022 -2.48,1.638 0,0 -1.017,1.225 -2.936,0.717 -0.242,-0.058 -0.555,-0.044 -0.828,-0.078 -1.458,-0.222 -3.357,-0.257 -5.565,-0.378 -0.969,-0.048 -1.837,0 -2.718,0.054 -1.376,0.082 -2.747,-0.029 -4.215,-0.417 -2.098,-0.553 -3.004,-1.753 -2.955,-3.59 0.009,-0.324 -0.049,-0.702 0.029,-1.07 0.436,-1.987 1.347,-4.224 2.402,-5.929 0.582,-0.94 1.473,-2.365 2.249,-3.237 0.213,-0.237 0.649,-0.145 0.697,-0.213 0.373,-0.615 0.96,-0.755 2.204,-0.654 0.47,0.039 1.424,0.47 2.146,0.359 1.076,-0.161 1.342,-1.265 1.753,-1.808 0.432,-0.581 0.781,-0.712 1.081,-1.026 0.155,-0.155 0.785,-0.388 1.473,-0.48 0.678,-0.097 1.419,-0.053 1.972,0 1.531,0.146 2.034,0.935 2.679,0.591 0.309,-0.175 0.507,-0.581 0.833,-0.94 0.32,-0.368 0.765,-0.688 1.011,-0.881 1.42,-1.124 2.942,-1.148 4.783,-1.313 1.667,-0.141 3.953,0.165 5.508,0.431 1.114,0.194 1.414,0.169 2.479,0.485 1.067,0.305 2.123,0.731 2.805,1.254 0.374,0.281 0.679,0.504 0.727,0.906 0.049,0.499 -0.29,1.124 -0.916,1.85 C 2.66,-2.737 1.463,-1.337 0,0" /></g><g
           transform="translate(641.9736,291.9577)"
           id="g260"><path
             id="path262"
             style="fill:#1d1d1d;fill-opacity:1;fill-rule:nonzero;stroke:none"
             d="m 0,0 c 3.755,-1.37 7.063,-1.211 7.853,-1.152 0.223,0.013 0.668,0.052 1.341,0.101 0.257,0.025 0.616,0.005 0.916,0.059 1.575,0.271 3.654,0.591 3.785,0.701 0.187,0.186 0.43,0.688 0.028,0.853 C 13.815,0.606 13.545,0.718 13.148,0.756 12.73,0.801 12.178,0.767 11.665,0.834 10.809,0.94 9.956,1.125 9.462,1.25 8.337,1.546 7.641,1.808 6.729,2.297 6.278,2.539 5.871,2.96 5.217,2.98 4.694,2.995 3.885,2.883 3.037,2.854 1.865,2.811 0.601,2.888 -0.185,3.324 c -0.483,0.272 -1.153,0.717 -1.768,1.211 -0.387,0.31 -0.706,0.658 -1.078,0.92 -0.302,0.204 -0.786,0.092 -1.125,0 C -4.544,5.349 -4.975,5.383 -5.111,5.058 -5.363,4.457 -2.606,1.14 0,0" /></g><g
           transform="translate(649.0508,340.988)"
           id="g264"><path
             id="path266"
             style="fill:#1d1d1d;fill-opacity:1;fill-rule:nonzero;stroke:none"
             d="m 0,0 -1.191,-0.271 c -0.359,-0.034 -0.901,0 -1.138,-0.248 -0.437,-0.329 -0.209,-1.36 -0.437,-2.169 -0.494,-1.774 -0.901,-4.094 -1.584,-5.761 -0.455,-1.109 -0.847,-2.247 -1.357,-3.328 -0.531,-1.124 -0.881,-1.744 -1.205,-2.383 -0.601,-1.134 -1.289,-2.67 -2.011,-3.769 -0.159,-0.252 -0.348,-0.605 -0.504,-0.92 -0.218,-0.436 -0.329,-0.838 0.165,-1.071 0.277,-0.131 0.722,-0.32 1.463,-0.305 1.101,0.014 1.73,0.281 2.291,0.305 1.478,0.072 1.449,0.489 1.648,1.298 0.077,0.349 0.572,1.304 0.732,1.758 0.189,0.5 0.479,1.072 0.745,1.517 0.388,0.654 0.678,1.419 1.028,2.093 1.016,1.952 1.874,3.982 2.731,6.05 0.465,1.129 1.144,3.232 1.226,5.024 C 2.675,-0.557 2.529,1.396 0.775,0.397 0.631,0.32 0.345,0.256 0,0" /></g><g
           transform="translate(637.9629,376.1726)"
           id="g268"><path
             id="path270"
             style="fill:#1d1d1d;fill-opacity:1;fill-rule:nonzero;stroke:none"
             d="m 0,0 c -1.24,0.969 -2.442,-0.087 -3.033,0.14 -0.393,0.151 -0.862,0.669 -1.192,1.124 -0.464,0.645 -1.22,0.741 -1.806,0.722 -1.115,-0.039 -1.454,-0.697 -2.495,-0.799 -1.12,-0.106 -0.863,0.872 -2.999,0.542 -1.328,-0.203 -2.393,-1.733 -3.357,-2.059 -0.649,-0.213 -2.306,0.514 -3.537,-1.225 -0.848,-1.192 -0.644,-2.509 0.32,-2.887 0.523,-0.199 1.948,0.421 3.328,0.431 0.732,0.005 1.372,-0.383 1.987,-0.65 0.421,-0.179 1.085,-0.503 1.41,-0.687 0.711,-0.426 2.097,-1.342 2.882,-2.238 0.73,-0.829 1.052,-1.497 1.414,-1.521 0.795,-0.035 1.017,1.293 1.768,2.387 0.925,1.343 2.165,2.53 3.469,1.696 2.311,-1.472 4.422,-4.655 6.104,-6.719 1.142,-1.395 2.335,-2.999 3.323,-4.583 0.45,-0.721 1.352,-1.928 2.025,-2.892 0.702,-1.027 1.468,-1.69 2.524,-0.755 0.708,0.619 0.334,1.579 0.765,2.165 0.252,0.349 1.017,0.281 1.255,0.538 1.105,1.221 0.397,1.559 0.218,2.892 -0.131,1.022 0.887,1.216 0.833,2.383 -0.077,1.705 -1.517,1.88 -1.773,2.495 -0.246,0.615 0.359,1.1 0.543,1.701 0.247,0.765 0.16,1.632 -0.611,2.596 -0.746,0.921 -1.744,0.915 -2.427,0.761 -0.556,-0.131 -0.76,-0.349 -1.327,-0.112 -0.209,0.088 -0.474,0.48 -0.828,0.688 C 8.226,-3.551 7.349,-3.304 6.748,-3.29 6.201,-3.275 5.696,-3.386 5.29,-3.604 5.053,-3.73 4.921,-3.905 4.646,-3.958 4.593,-3.968 4.529,-3.962 4.476,-3.968 3.831,-4.055 3.957,-3.682 2.814,-3.614 2.039,-3.566 1.08,-4.157 0.683,-2.999 0.668,-2.054 1.478,-1.153 0,0" /></g><g
           transform="translate(620.625,362.8796)"
           id="g272"><path
             id="path274"
             style="fill:#1d1d1d;fill-opacity:1;fill-rule:nonzero;stroke:none"
             d="m 0,0 c -0.16,-0.281 -0.427,-0.451 -0.684,-0.79 -0.232,-0.305 -0.445,-0.702 -0.615,-1.017 -0.305,-0.552 -0.445,-0.998 -0.077,-1.264 0.363,-0.253 1.09,0.203 1.662,-0.543 0.16,-0.203 0.353,-0.693 0.503,-1.008 0.102,-0.193 0.17,-0.198 0.218,-0.397 0.107,-0.368 0.028,-0.698 0.116,-0.979 0.117,-0.416 0.31,-0.537 0.358,-0.575 0.471,-0.398 2.361,-0.015 3.431,0.212 0.809,0.175 1.53,0.47 1.879,1.013 0.237,0.368 0.185,0.871 0.504,1.265 C 7.848,-3.4 8.128,-2.35 7.668,-1.657 6.903,-0.509 5.35,-0.694 4.409,-0.874 4.041,-0.941 3.629,-0.801 3.15,-0.728 2.564,-0.642 2.015,-0.917 1.796,-0.51 1.302,0.41 2.134,1.375 2.517,1.52 3.282,1.81 3.911,1.588 4.542,1.408 5.583,1.123 6.118,1.08 6.064,2.344 6.025,3.324 5.052,4.985 3.938,5.455 2.761,5.943 1.918,6.25 1.622,5.852 1.26,5.343 1.046,4.481 1.157,3.716 1.264,2.994 1.187,2.155 1.007,1.768 0.755,1.235 0.275,0.494 0,0" /></g><g
           transform="translate(568.6104,412.8786)"
           id="g276"><path
             id="path278"
             style="fill:#1d1d1d;fill-opacity:1;fill-rule:nonzero;stroke:none"
             d="m 0,0 c -0.231,-0.272 -0.504,-0.413 -0.097,-0.911 0.408,-0.494 1.27,-1.308 1.948,-2.029 0.678,-0.727 0.834,-0.384 1.046,-0.185 4.975,4.617 14.069,9.684 15.702,10.227 0.522,0.179 2.213,0.814 3.39,1.308 2.088,0.891 7.189,1.952 7.509,1.991 0.314,0.048 0.813,0.097 0.586,0.368 -0.223,0.266 -4.297,1.85 -6.288,1.579 C 22.9,12.227 19.998,12.44 15.744,10.769 13.492,9.882 6.695,6.06 5.198,4.795 4.143,3.899 0.224,0.271 0,0" /></g><g
           transform="translate(547.8965,426.5056)"
           id="g280"><path
             id="path282"
             style="fill:#1d1d1d;fill-opacity:1;fill-rule:nonzero;stroke:none"
             d="m 0,0 c 1.226,-0.155 3.076,-0.717 4.84,-1.536 2.901,-1.352 5.735,-3.192 6.428,-3.609 1.109,-0.678 5.949,-5.217 6.593,-5.974 0.679,-0.794 1.134,0.055 1.134,0.055 0.028,0.024 0.445,0.411 0.93,0.837 0.784,0.698 1.734,1.599 1.404,1.9 -0.149,0.144 -0.309,0.425 -0.575,0.716 -0.47,0.5 -1.067,1.211 -1.886,1.948 -0.673,0.601 -1.511,1.191 -2.402,1.816 -0.32,0.223 -0.591,0.548 -0.911,0.805 -1.497,1.167 -3.134,2.46 -5.441,3.139 C 3.271,2.122 0.668,0.678 0.188,0.63 -0.301,0.585 -1.114,0.15 0,0" /></g><g
           transform="translate(541.6182,372.612)"
           id="g284"><path
             id="path286"
             style="fill:#1d1d1d;fill-opacity:1;fill-rule:nonzero;stroke:none"
             d="M 0,0 C 1.327,0.784 0.383,2.213 -0.548,2.18 L -0.514,2.2 -0.567,2.18 C -0.746,2.17 -0.925,2.107 -1.085,1.971 L -1.013,2 C -2.466,1.211 -1.323,-0.771 0,0" /></g><g
           transform="translate(551.0254,372.7961)"
           id="g288"><path
             id="path290"
             style="fill:#1d1d1d;fill-opacity:1;fill-rule:nonzero;stroke:none"
             d="M 0,0 C 2.219,-0.019 1.948,2.621 0.286,2.654 L 0.155,2.621 C -0.276,2.509 -0.794,2.383 -1.031,1.458 -1.249,0.615 -0.76,0.005 0,0" /></g><g
           transform="translate(552.5615,380.7214)"
           id="g292"><path
             id="path294"
             style="fill:#1d1d1d;fill-opacity:1;fill-rule:nonzero;stroke:none"
             d="m 0,0 c 0.542,0.668 -0.019,1.88 -0.872,1.88 l -0.053,0 C -1.608,1.861 -2.515,1.221 -2.151,0.18 -1.934,-0.431 -0.504,-0.615 0,0" /></g><g
           transform="translate(548.7676,371.0232)"
           id="g296"><path
             id="path298"
             style="fill:#1d1d1d;fill-opacity:1;fill-rule:nonzero;stroke:none"
             d="M 0,0 -0.179,-0.034 C -1.86,-0.305 -1.278,-2.8 0.397,-2.311 1.783,-1.909 1.464,0.218 0,0" /></g><g
           transform="translate(548.4971,379.113)"
           id="g300"><path
             id="path302"
             style="fill:#1d1d1d;fill-opacity:1;fill-rule:nonzero;stroke:none"
             d="M 0,0 -0.127,-0.039 C -0.882,-0.14 -1.191,-1.153 -0.911,-1.875 -0.663,-2.49 0.048,-2.877 0.853,-2.533 2.78,-1.715 1.429,0.49 0,0" /></g><g
           transform="translate(546.8398,382.9255)"
           id="g304"><path
             id="path306"
             style="fill:#1d1d1d;fill-opacity:1;fill-rule:nonzero;stroke:none"
             d="m 0,0 c -1.559,0.131 -1.923,-2.174 -0.324,-2.456 l 0.053,-0.015 C 0.402,-2.528 1.115,-2.005 1.081,-1.153 1.047,-0.407 0.663,-0.053 0,0" /></g><g
           transform="translate(545.7158,371.948)"
           id="g308"><path
             id="path310"
             style="fill:#1d1d1d;fill-opacity:1;fill-rule:nonzero;stroke:none"
             d="m 0,0 c 1.87,-0.286 2.132,2.49 0.461,2.635 l -0.044,0 C -1.234,2.844 -1.792,0.267 0,0" /></g><g
           transform="translate(544.1953,378.8757)"
           id="g312"><path
             id="path314"
             style="fill:#1d1d1d;fill-opacity:1;fill-rule:nonzero;stroke:none"
             d="m 0,0 c -1.07,0.257 -1.788,-0.276 -1.903,-1.342 -0.039,-0.358 0.091,-0.756 0.334,-1.012 0.203,-0.209 0.625,-0.408 1.224,-0.408 l 0.059,0.02 c 0.934,0.116 1.521,1.231 1.148,2.025 C 0.722,-0.426 0.479,-0.106 0,0" /></g><g
           transform="translate(543.3281,367.9856)"
           id="g316"><path
             id="path318"
             style="fill:#1d1d1d;fill-opacity:1;fill-rule:nonzero;stroke:none"
             d="M 0,0 C 1.772,0.083 2.039,2.432 0.311,2.675 L 0.198,2.693 C -0.687,2.611 -1.153,2.369 -1.226,1.396 -1.283,0.601 -0.818,-0.029 0,0" /></g><g
           transform="translate(554.6543,378.6677)"
           id="g320"><path
             id="path322"
             style="fill:#1d1d1d;fill-opacity:1;fill-rule:nonzero;stroke:none"
             d="M 0,0 -0.126,0 C -0.882,-0.039 -1.478,-0.601 -1.43,-1.25 -1.371,-2.025 -0.717,-2.514 0.213,-2.355 1.091,-2.079 1.512,-0.213 0,0" /></g><g
           transform="translate(556.4561,381.3611)"
           id="g324"><path
             id="path326"
             style="fill:#1d1d1d;fill-opacity:1;fill-rule:nonzero;stroke:none"
             d="m 0,0 c 0.373,0.13 0.742,0.354 1.236,0.576 1.046,0.47 1.671,0.795 2.931,1.158 0.519,0.15 0.997,0.47 0.857,1.037 C 4.796,3.696 3.924,3.26 3.371,3.081 3.028,2.974 2.713,2.834 2.335,2.684 1.594,2.393 0.766,2.063 0.237,1.768 -0.062,1.604 -0.668,1.269 -0.833,1.138 -1.312,0.77 -1.002,-0.03 -0.053,-0.03 L 0,0 Z" /></g><g
           transform="translate(586.7676,371.5705)"
           id="g328"><path
             id="path330"
             style="fill:#1d1d1d;fill-opacity:1;fill-rule:nonzero;stroke:none"
             d="M 0,0 C 1.638,-0.199 2.33,2.083 0.718,2.592 L 0.597,2.616 C -1.109,2.974 -1.574,0.185 0,0" /></g><g
           transform="translate(588.2793,380.9734)"
           id="g332"><path
             id="path334"
             style="fill:#1d1d1d;fill-opacity:1;fill-rule:nonzero;stroke:none"
             d="M 0,0 -0.121,0.072 C -1.4,1.424 -2.955,-0.582 -1.977,-1.71 -0.659,-3.222 0.838,-1.347 0,0" /></g><g
           transform="translate(589.1699,367.2785)"
           id="g336"><path
             id="path338"
             style="fill:#1d1d1d;fill-opacity:1;fill-rule:nonzero;stroke:none"
             d="M 0,0 C 1.991,-0.136 1.396,2.334 0.127,2.625 L 0.088,2.635 C -1.661,2.732 -1.356,0.092 0,0" /></g><g
           transform="translate(590.3711,377.8488)"
           id="g340"><path
             id="path342"
             style="fill:#1d1d1d;fill-opacity:1;fill-rule:nonzero;stroke:none"
             d="M 0,0 -0.193,-0.029 C -1.977,-0.15 -1.593,-2.844 0.073,-2.534 1.652,-2.238 1.154,0.092 0,0" /></g><g
           transform="translate(592.6631,370.5237)"
           id="g344"><path
             id="path346"
             style="fill:#1d1d1d;fill-opacity:1;fill-rule:nonzero;stroke:none"
             d="M 0,0 C 1.216,0.659 0.271,2.563 -1.042,2.529 L -1.23,2.486 C -2.916,1.904 -1.569,-0.843 0,0" /></g><g
           transform="translate(593.7148,380.1062)"
           id="g348"><path
             id="path350"
             style="fill:#1d1d1d;fill-opacity:1;fill-rule:nonzero;stroke:none"
             d="M 0,0 C -0.127,0.615 -0.621,1.201 -1.512,0.945 -2.248,0.726 -2.359,0.097 -2.19,-0.552 l 0.078,-0.116 C -1.735,-1.899 0.294,-1.376 0,0" /></g><g
           transform="translate(593.9658,366.1301)"
           id="g352"><path
             id="path354"
             style="fill:#1d1d1d;fill-opacity:1;fill-rule:nonzero;stroke:none"
             d="M 0,0 C 0.746,-0.087 1.328,0.426 1.328,1.172 1.328,1.831 1.022,2.321 0.3,2.49 L 0.179,2.465 C -1.438,2.635 -1.633,0.184 0,0" /></g><g
           transform="translate(596.165,375.6784)"
           id="g356"><path
             id="path358"
             style="fill:#1d1d1d;fill-opacity:1;fill-rule:nonzero;stroke:none"
             d="M 0,0 C -0.019,0.877 -0.547,1.25 -1.196,1.396 L -1.438,1.419 C -3.197,1.328 -2.834,-1.425 -1.352,-1.323 -0.64,-1.274 0.034,-0.784 0,0" /></g><g
           transform="translate(596.9453,369.7585)"
           id="g360"><path
             id="path362"
             style="fill:#1d1d1d;fill-opacity:1;fill-rule:nonzero;stroke:none"
             d="M 0,0 C 2.025,0.126 1.56,2.931 -0.121,2.645 L -0.218,2.597 C -0.925,2.548 -1.555,2.073 -1.506,1.216 -1.473,0.475 -0.718,-0.048 0,0" /></g><g
           transform="translate(584.6895,375.3293)"
           id="g364"><path
             id="path366"
             style="fill:#1d1d1d;fill-opacity:1;fill-rule:nonzero;stroke:none"
             d="M 0,0 C 1.453,0.141 1.506,2.471 -0.121,2.335 -1.328,2.175 -1.604,-0.154 0,0" /></g><g
           transform="translate(583.7256,383.1145)"
           id="g368"><path
             id="path370"
             style="fill:#1d1d1d;fill-opacity:1;fill-rule:nonzero;stroke:none"
             d="M 0,0 C -0.988,0.499 -2.151,1.042 -3.285,1.221 -4.079,1.347 -4.622,1.497 -5.422,1.497 L -5.591,1.473 c -0.683,-0.199 -0.74,-0.746 -0.484,-1.081 0.314,-0.402 0.911,-0.489 1.884,-0.513 1.226,-0.02 1.84,-0.48 2.989,-0.983 0.494,-0.224 1.091,-0.542 1.463,-0.024 C 0.765,-0.426 0.527,-0.262 0,0" /></g><g
           transform="translate(613.7988,353.5495)"
           id="g372"><path
             id="path374"
             style="fill:#1d1d1d;fill-opacity:1;fill-rule:nonzero;stroke:none"
             d="m 0,0 c -1.036,-0.281 -2.433,-0.896 -3.808,-1.638 -2.084,-0.939 -3.415,-1.564 -3.493,-1.927 -0.048,-0.267 0.16,-0.495 0.684,-0.723 2.287,-0.988 4.645,-2.727 6.651,-4.926 2.543,-2.805 4.631,-6.274 6.468,-9.214 0.988,-1.579 1.802,-3.086 2.508,-4.263 1.066,-1.759 1.817,-2.839 1.886,-2.926 0.285,-0.34 0.609,-0.775 0.866,-0.839 0.897,-0.227 0.842,0.461 0.397,1.513 -0.053,0.131 -0.039,0.382 -0.073,0.523 -0.575,2.722 0.055,3.566 0.189,3.996 0.082,0.218 0.334,1.134 0.534,1.463 0.46,0.751 1.133,1.356 1.806,2.011 1.178,1.133 2.49,2.238 3.697,3.274 0.455,0.387 0.857,0.843 1.269,1.226 0.455,0.431 0.931,0.721 1.365,1.158 0.316,0.305 0.607,0.717 0.916,1.085 0.315,0.358 0.655,0.673 1.003,1.041 0.489,0.529 1.42,1.463 1.512,1.987 0.126,0.668 -0.247,1.554 -0.61,2.363 -0.267,0.606 -0.518,1.052 -0.746,1.468 -0.243,0.431 -0.17,0.794 -0.804,0.828 -0.514,0.029 -2.307,-0.949 -4.627,0.549 -0.093,0.057 -0.79,0.75 -1.061,1.322 C 16.233,-0.005 16.035,0.77 15.651,0.93 15.299,1.075 14.936,0.993 14.494,0.911 14.082,0.843 13.599,0.78 13.123,0.653 12.141,0.382 11.045,0.146 10.125,-0.039 9.243,-0.213 8.429,-0.063 7.708,-0.073 6.854,-0.078 6.109,0.174 5.368,0.261 3.711,0.46 1.822,0.489 0,0" /></g><g
           transform="translate(629.6787,329.2224)"
           id="g376"><path
             id="path378"
             style="fill:#1d1d1d;fill-opacity:1;fill-rule:nonzero;stroke:none"
             d="m 0,0 c 0.019,-0.001 0.037,-0.002 0.056,-0.002 0.572,0 0.943,0.669 1.664,2.472 C 2.883,5.432 2.781,5.881 2.511,6.193 2.36,6.366 2.131,6.436 1.887,6.377 1.45,6.264 0.394,5.162 0.187,4.941 L 0.155,4.909 C -0.264,4.465 -0.697,4.006 -0.922,3.386 -1.125,2.857 -1.049,2.286 -0.979,1.768 -0.743,0.054 -0.186,0.012 0,0" /></g><g
           transform="translate(614.54,337.4856)"
           id="g380"><path
             id="path382"
             style="fill:#1d1d1d;fill-opacity:1;fill-rule:nonzero;stroke:none"
             d="m 0,0 c -0.357,0.087 -1.1,-0.117 -1.846,-0.169 -0.846,-0.054 -1.685,0 -1.855,-0.31 -0.189,-0.364 0.722,-6.448 2.04,-8.144 0.624,-0.78 1.627,-1.507 2.852,-1.826 0.882,-0.233 1.934,-0.247 2.791,-0.262 1.328,-0.034 2.301,0.034 2.452,0.141 0.373,0.261 -1.957,3.875 -2.937,5.755 C 2.863,-3.604 0.789,-0.174 0,0" /></g><g
           transform="translate(563.7812,322.7253)"
           id="g384"><path
             id="path386"
             style="fill:#1d1d1d;fill-opacity:1;fill-rule:nonzero;stroke:none"
             d="m 0,0 c 0,0 0.271,0.402 0.604,1.108 0.544,1.13 1.397,3.018 2.312,5.01 1.086,2.364 2.258,4.883 2.999,6.661 0.28,0.673 0.838,2.263 1.555,2.63 1.298,0.683 2.287,-0.212 1.613,-1.535 C 8.86,13.423 8.671,12.852 8.409,12.261 8.206,11.795 7.92,11.301 7.761,10.953 7.111,9.538 6.802,8.821 6.172,7.329 5.716,6.239 5.469,5.42 4.819,4.166 4.272,3.1 3.696,1.894 3.091,0.823 2.8,0.314 1.981,-1.44 1.478,-1.706 0.339,-2.311 -0.523,-1.032 0,0 m 43.739,22.904 c -0.751,0.377 -1.4,0.581 -2.073,0.828 -0.882,0.315 -1.758,0.649 -2.722,0.659 -0.573,0.009 -1.319,-0.223 -1.997,-0.32 -1.849,-0.267 -3.696,-0.484 -5.449,-0.406 -1.477,0.062 -2.862,0.392 -4.341,0.493 -1.69,0.116 -3.367,0.097 -5.232,0.097 -1.37,0.005 -3.129,-0.392 -4.476,-0.62 -1.036,-0.189 -2.47,-0.301 -3.265,-0.538 -1.259,-0.358 -3.429,-1.056 -6.593,-1.453 -1.7,-0.213 -2.959,-0.393 -3.977,-0.33 -1.619,0.093 -2.596,0.568 -3.735,0.79 -1.769,0.349 -5.087,1.357 -6.986,0.731 -1.172,-0.387 -1.57,-0.832 -1.458,-2.082 0.063,-0.689 0.373,-2.112 0.828,-2.65 0.378,-0.456 0.901,-0.465 1.13,-0.959 0.488,-1.096 0,-3.115 0.329,-5.664 0.295,-2.266 1.061,-4.931 1.651,-6.287 0.591,-1.342 1.512,-3.246 2.523,-5.997 0,0 0.812,-1.548 1.853,-3.028 -1.983,-0.677 -4.024,-1.395 -5.931,-1.991 -1.966,-0.615 -3.284,-0.983 -4.122,-1.299 -0.451,-0.174 -1.008,-0.377 -1.521,-0.562 -0.697,-0.237 -1.255,-0.499 -0.93,-1.244 0.372,-0.82 1.07,-1.56 1.928,-1.585 1.186,-0.033 2.834,0.877 3.837,1.066 0.116,0.019 0.367,0.184 0.813,0.324 0.432,0.136 1.056,0.243 1.734,0.441 1.085,0.315 2.379,0.78 3.838,1.274 4.805,1.638 10.768,3.861 12.121,4.423 1.036,0.431 1.748,0.814 2.353,1.086 0.732,0.315 1.279,0.474 1.545,0.552 0.625,0.189 1.323,0.518 2.143,0.77 0.822,0.256 8.186,3.226 8.951,3.478 0.76,0.252 5.822,1.711 7.596,1.579 1.768,-0.126 2.282,-0.188 2.974,-0.377 0.61,-0.165 2.103,-0.674 2.761,-1.013 0.084,-0.039 0.166,-0.087 0.215,-0.125 0.439,-0.316 -1.009,0.188 -1.009,0.188 0,0 -1.651,0.509 -2.35,0.572 C 36.003,3.788 34.283,3.783 33.789,3.681 33.406,3.609 32.859,3.502 31.808,3.25 30.233,2.872 28.17,2.242 26.804,1.709 26.489,1.588 24.14,0.663 21.121,-0.649 19.149,-1.512 17.096,-2.558 15.124,-3.464 13.729,-4.113 12.354,-4.675 11.37,-5.203 11.181,-5.305 10.003,-5.823 8.458,-6.429 5.387,-7.635 0.876,-9.477 0.247,-9.689 c -0.413,-0.141 -1.977,-0.615 -3.769,-1.033 -2.268,-0.537 -4.869,-1.011 -5.722,-1.123 -1.52,-0.189 -1.709,-0.247 -1.83,-0.693 -0.132,-0.44 0,-1.773 0.31,-2.088 0.32,-0.314 1.269,-0.445 1.773,-0.377 0.218,0.028 1.923,0.208 3.798,0.605 2.412,0.508 5.134,1.273 5.63,1.42 0.033,0.01 0.082,0.026 0.138,0.045 -0.014,-1.815 -0.104,-4.218 -0.086,-4.478 0.02,-0.407 0.141,-2.456 0.241,-2.723 0.093,-0.261 0.311,-0.333 0.529,-0.358 0.219,-0.024 0.77,0 0.96,0 0.188,0 4.727,0.552 4.727,0.552 0,0 0.877,0.073 1.633,0.175 0.949,0.116 2.073,0.396 2.258,0.619 0.307,0.367 0.12,7.046 0.135,10.354 0.257,0.123 0.451,0.223 0.544,0.266 0.289,0.14 2.944,1.22 6.447,2.756 3.758,1.652 8.375,3.832 12.348,5.062 2.213,0.693 4.326,1.115 5.813,1.095 0.884,-0.01 1.734,0 2.018,-0.235 0,0 0.662,-0.193 1.594,-0.845 0.012,0.01 0.022,0.019 0.034,0.029 0.143,0.129 0.276,0.252 0.41,0.375 0.948,0.878 2.129,1.971 4.251,2.457 0.435,0.102 0.908,0.166 1.417,0.202 C 45.338,3.029 44.813,3.6 44.292,4.001 44.214,3.972 43.473,4.65 42.698,5.076 42.127,5.411 40.861,6.326 38.86,6.961 37.238,7.484 35.068,7.876 32.675,7.659 31.294,7.499 29.773,7.111 28.102,6.675 26.944,6.36 25.67,6.06 24.468,5.638 22.909,5.086 21.378,4.379 19.886,3.807 17.899,3.037 15.933,2.306 14.47,1.709 12.943,1.082 11.85,0.621 11.441,0.454 c -0.002,3.167 0.207,9.273 0.075,11.298 0,3.095 0.138,3.899 -0.412,4.263 -0.509,0.131 -1.435,0.339 -2.505,0.407 C 7.697,16.48 6.699,16.412 5.76,16.354 4.815,16.286 2.897,15.869 2.771,15.506 2.597,14.847 2.504,13.941 2.455,12.759 2.446,12.179 2.52,11.563 2.441,10.813 2.306,9.586 2.106,8.119 1.903,7.009 1.7,5.856 1.425,5.154 1.425,5.154 1.293,4.805 1.148,4.466 1.041,4.19 0.223,2.092 -0.901,2.533 -1.604,3.347 -2.03,3.832 -2.432,4.723 -2.621,5.008 c -0.949,1.449 -1.404,3.255 -1.71,4.845 -0.208,1.085 -0.828,4.18 -0.552,5.968 0.063,0.412 0.101,0.698 0.29,0.945 0.087,0.107 0.15,0.189 0.335,0.281 0.514,0.276 1.318,0.174 2.218,0.329 1.309,0.223 2.757,0.625 3.396,0.78 2.296,0.548 3.784,1.104 6.932,1.047 2.529,-0.049 3.58,-0.606 7.383,-0.805 2.94,-0.155 6.012,-0.179 8.938,0 1.88,0.117 3.654,0.489 5.498,0.403 1.144,-0.059 2.205,-0.286 3.342,-0.461 1.42,-0.232 2.845,-0.048 4.467,-0.208 2.685,-0.257 5.363,-0.393 8.178,-0.063 0.964,0.112 2.713,0.271 2.678,0.562 -0.068,0.693 -3.042,3.28 -5.033,4.273" /></g><g
           transform="translate(635.8174,359.9035)"
           id="g388"><path
             id="path390"
             style="fill:#1d1d1d;fill-opacity:1;fill-rule:nonzero;stroke:none"
             d="m 0,0 c -0.306,0.019 -0.665,0.061 -0.867,0.152 -0.217,0.092 -0.523,0.344 -0.591,0.989 -0.092,0.752 0.168,0.981 0.339,1.038 0.454,0.172 0.779,0.172 1.023,0.1 C 0.152,2.202 0.302,2.202 0.511,2.148 0.721,2.087 1.893,2.164 1.912,1.271 1.935,0.381 0.302,-0.02 0,0 m -14.02,-36.942 c -4.104,0.044 -6.114,-0.14 -8.575,0.025 -0.955,0.073 -2.945,0.378 -4.573,0 -1.88,-0.432 -2.766,-1.468 -3.788,-2.378 -1.183,-1.066 -2.083,-1.628 -1.656,-2.772 0.13,-0.344 0.352,-0.532 0.599,-0.697 0.368,-0.238 0.664,-0.388 0.964,-0.649 0.576,-0.509 0.911,-1.328 2.113,-0.988 0.485,0.134 0.832,0.503 1.235,0.886 0.702,0.683 1.061,1.641 2.074,2.272 0.373,0.232 0.634,0.435 0.983,0.523 0.46,0.126 0.994,0.107 1.376,0.218 1.162,0.353 2.485,0.048 3.919,-0.116 2.617,-0.305 5.402,-0.548 7.548,-0.848 1.457,-0.199 3.255,-0.349 4.834,-0.408 1.269,-0.047 2.141,-0.072 3.322,0.437 0.922,0.393 1.867,1.395 2.598,2.311 1.443,1.777 3.667,6.414 5.401,9.873 0.398,0.794 0.872,1.985 1.367,3.081 0.735,1.637 1.54,3.056 1.738,4.834 0.306,2.892 -1.157,4.481 -0.125,5.329 0.925,0.746 2.374,-0.247 3.642,0.194 1.251,0.431 2.956,1.322 3.222,1.851 0.092,0.188 -0.538,1.385 -1.4,3.037 -1.075,2.059 -2.568,4.815 -4.094,7.053 C 8.012,-2.852 7.483,-1.859 6.975,-1.248 6.428,-0.594 5.992,0.2 5.531,0.869 4.937,1.726 4.263,2.423 3.651,3.325 2.586,4.89 -0.17,7.898 -0.238,7.67 -0.466,7.874 -1.455,6.963 -2.05,5.611 -2.447,4.71 -2.636,2.903 -2.636,2.215 c 0,-0.406 -0.096,-0.882 -0.276,-1.191 -0.61,-1.119 -1.793,-2.054 -1.502,-2.587 0.247,-0.465 0.896,-0.412 1.104,-0.824 0.079,-0.145 0.252,-0.421 0.339,-0.693 0.054,-0.188 0.03,-0.363 0.068,-0.557 0.132,-0.586 0.171,-1.312 0.678,-1.806 1.444,-1.395 3.78,0.034 5.053,-0.746 0.208,-0.122 0.46,-0.461 0.653,-0.718 0.083,-0.17 0.17,-0.359 0.258,-0.566 0.746,-1.686 1.763,-4.573 2.399,-6.37 0.391,-1.134 0.629,-1.347 0.43,-1.88 -0.073,-0.179 -0.726,-0.897 -1.472,-1.298 -0.935,-0.51 -2.694,-1.521 -3.222,-2.457 -0.387,-0.668 -0.95,-1.675 -1.429,-2.94 -0.374,-1.007 -0.834,-2.631 -1.251,-3.779 -0.425,-1.157 -0.759,-2.504 -1.443,-4.408 -0.257,-0.693 -0.474,-1.342 -0.722,-2.093 -0.551,-1.676 -0.978,-3.037 -1.782,-3.657 -0.319,-0.247 -0.658,-0.519 -1.032,-0.629 -0.417,-0.127 -1.013,-0.093 -1.496,-0.098 -1.716,-0.019 -4.332,0.121 -6.739,0.14" /></g><g
           transform="translate(668.4824,283.0935)"
           id="g392"><path
             id="path394"
             style="fill:#1d1d1d;fill-opacity:1;fill-rule:nonzero;stroke:none"
             d="m 0,0 c -0.276,-1.1 -1.283,-1.812 -2.346,-2.529 -0.992,-0.668 -2.14,-1.327 -3.032,-1.735 -1.981,-0.895 -4.113,-1.613 -6.114,-2.639 -1.889,-0.969 -4.78,-2.641 -6.802,-4.317 -1.927,-1.598 -3.065,-3.013 -3.255,-3.125 -0.75,-0.465 -0.76,0.543 -0.789,1.535 -0.01,0.335 -0.078,0.704 -0.092,1.072 -0.044,1.443 -0.247,3.027 -0.247,3.642 0,1.643 -0.189,3.242 -0.258,4.845 -0.023,0.504 0.036,1.047 -0.076,1.584 -0.145,0.779 -0.023,1.498 0.364,1.885 0.286,0.286 0.741,0.44 1.196,0.571 1.095,0.329 2.49,0.383 3.715,0.621 2.282,0.43 4.235,0.954 6.575,1.187 0.619,0.062 1.797,0.213 3.182,0.435 1.676,0.272 3.832,0.688 5.416,0.538 C -1.765,3.507 -0.974,3.071 -0.509,2.489 -0.039,1.913 0.305,1.148 0,0 M 2.131,5.053 C 0.997,6.051 -0.625,6.65 -2.2,6.757 c -2.8,0.18 -5.905,-0.605 -8.991,-1.2 -1.822,-0.345 -3.657,-0.62 -5.391,-0.858 -3.431,-0.475 -7.751,-0.388 -10.072,0.61 -1.409,0.605 -1.904,0.698 -3.284,1.589 -0.65,0.412 -2.142,1.802 -2.787,2.563 -0.639,0.761 -1.356,1.55 -1.69,2.199 -0.358,0.674 -1.259,1.908 -1.884,3.29 -1.192,2.639 -2.592,4.824 -4.365,4.01 -0.823,-0.377 -0.969,-1.981 -0.911,-3.933 0.014,-0.494 0.136,-1.037 0.14,-1.56 0.098,-2.635 0.122,-5.387 0.209,-6.389 0.3,-3.396 0.369,-4.38 0.46,-6.938 0.035,-0.833 0.141,-1.84 0.214,-2.911 0.082,-1.081 0.193,-2.708 0.271,-4.53 0.053,-1.322 -0.068,-2.655 0,-4.045 0.044,-0.862 0.189,-2.276 0.26,-3.851 0.069,-1.395 0.026,-2.921 0.097,-4.05 0.07,-1.065 0.229,-1.758 0.437,-1.851 0.271,-0.121 0.591,0 1.104,0.17 0.607,0.203 1.463,0.46 2.482,0.698 1.97,0.459 3.696,0.813 5.28,0.959 1.341,0.13 0.692,0.203 2.232,0.125 0.16,-0.004 2.728,-0.101 2.897,-0.125 0.796,-0.097 1.507,-0.087 2.277,-0.213 0.741,-0.117 1.444,-0.339 2.268,-0.199 0.3,0.3 0.605,1.071 1.047,1.836 0.397,0.683 0.92,1.342 1.297,1.846 1.172,1.545 2.383,2.848 3.866,3.899 2.95,2.074 6.361,3.45 10.043,4.84 0.746,0.285 1.365,0.63 2.17,1.051 0.42,0.219 0.949,0.402 1.37,0.649 2.035,1.173 3.91,2.708 4.675,4.744 0.882,2.373 0.185,4.495 -1.39,5.871" /></g><g
           transform="translate(657.5918,282.032)"
           id="g396"><path
             id="path398"
             style="fill:#1d1d1d;fill-opacity:1;fill-rule:nonzero;stroke:none"
             d="M 0,0 C -0.412,0.224 -1.123,0.054 -1.841,-0.087 -2.363,-0.193 -2.888,-0.232 -3.415,-0.305 -4.302,-0.436 -5.174,-0.64 -6.03,-0.794 -6.462,-0.871 -6.859,-1.061 -7.203,-1.119 -7.785,-1.226 -8.245,-1.226 -8.54,-1.608 c -0.161,-0.204 -0.17,-0.611 -0.107,-1.033 0.058,-0.455 0.116,-1.021 0.121,-1.603 0.01,-0.47 -0.014,-0.987 0.019,-1.298 0.034,-0.236 0.121,-0.396 0.18,-0.431 0.232,-0.145 0.895,0.315 1.695,0.771 0.872,0.498 1.947,1.016 2.878,1.375 0.697,0.271 1.694,0.717 2.528,1.104 0.834,0.388 1.745,0.534 1.894,0.815 0.112,0.193 0.01,0.566 -0.126,0.988 C 0.432,-0.576 0.339,-0.184 0,0" /></g><g
           transform="translate(668.5547,239.4314)"
           id="g400"><path
             id="path402"
             style="fill:#1d1d1d;fill-opacity:1;fill-rule:nonzero;stroke:none"
             d="m 0,0 c 0.02,-0.073 0.039,-0.203 0.072,-0.373 0.403,-1.139 1.111,-2.084 2.224,-0.398 0.286,0.538 0.572,1.085 0.858,1.671 0,0 0.014,0.035 0.038,0.073 0,0 0.699,1.4 1.463,3.018 0.573,1.207 1.129,2.427 1.657,3.678 0.14,0.339 0.287,0.672 0.426,1.007 0.015,0.058 0.02,0.136 0.02,0.136 0.058,0.745 0.43,1.438 -0.794,2.873 -0.082,0.096 -0.141,0.183 -0.199,0.276 l -0.004,0.004 c -0.461,0.591 -1.9,2.868 -2.413,3.498 -0.529,0.644 -0.911,1.361 -1.352,2.093 -0.509,0.847 -1.047,1.598 -1.56,2.48 -0.388,0.663 -0.824,1.279 -1.22,1.9 -0.509,0.784 -1.183,2.052 -1.44,2.373 -0.353,0.456 -1.506,2.277 -2.112,3.444 -0.363,0.697 -0.779,1.434 -1.162,2.117 -0.302,0.542 -0.636,1.153 -0.887,1.705 -0.155,0.354 -0.281,0.62 -0.513,0.697 -0.277,0.092 -0.577,-0.028 -0.94,-0.193 -0.572,-0.247 -1.254,-0.674 -1.914,-1.052 -1.031,-0.59 -2.126,-1.288 -2.621,-1.652 -1.797,-1.331 -3.807,-3.148 -4.839,-5.197 -0.697,-1.401 -0.349,-1.666 0.146,-1.908 1.157,-0.563 3.086,-1.687 4.136,-2.433 1.933,-1.381 3.649,-3.09 5.329,-4.82 0.61,-0.63 1.749,-1.933 2.267,-2.751 C -4.858,11.5 -4.268,10.847 -3.77,10.047 -3.271,9.248 -2.771,8.303 -2.413,7.426 -1.869,6.104 -1.25,4.757 -0.906,3.396 -0.567,2.098 -0.242,1.225 0,0" /></g><g
           transform="translate(660.75,222.7712)"
           id="g404"><path
             id="path406"
             style="fill:#1d1d1d;fill-opacity:1;fill-rule:nonzero;stroke:none"
             d="m 0,0 0.011,-0.01 c 1.496,1.987 2.96,4.055 4.374,6.211 0.756,1.535 1.515,4.292 0.591,8.453 -0.156,0.722 -0.272,1.275 -0.339,1.696 -0.146,0.644 -0.267,1.152 -0.529,1.966 -0.382,1.216 -0.857,2.34 -1.337,3.571 -0.693,1.749 -1.676,3.202 -2.674,4.738 -0.901,1.399 -1.884,2.736 -3.139,3.947 -1.201,1.149 -2.577,2.592 -4.054,3.363 -1.027,0.528 -1.948,1.138 -3.009,1.681 -0.582,0.285 -1.763,0.848 -2.747,1.225 -0.488,0.184 -1.919,0.566 -3.671,0.795 -1.992,0.257 -4.336,0.369 -5.979,0.218 -2.562,-0.237 -4.883,-0.794 -7.198,-1.516 -1.754,-0.548 -3.3,-1.231 -4.84,-2.258 -1.85,-1.226 -4.171,-3.135 -5.809,-5.13 -0.26,-0.329 -0.469,-0.731 -0.735,-1.066 -0.693,-0.897 -1.323,-1.782 -1.904,-2.738 -0.368,-0.619 -0.81,-1.36 -1.149,-2.004 -0.265,-0.529 -0.682,-1.599 -0.96,-2.447 -0.26,-0.843 -0.56,-1.691 -0.764,-2.562 -0.364,-1.517 -0.707,-3.043 -0.891,-4.641 -0.388,-3.411 -0.271,-6.967 0.47,-10.295 0.391,-1.772 1.064,-3.511 1.84,-5.115 0.785,-1.638 1.57,-3.12 2.544,-4.457 1.002,-1.366 2.199,-2.582 3.565,-3.822 0.668,-0.606 1.312,-1.303 2.005,-1.818 1.164,-0.866 2.389,-1.622 3.682,-2.247 1.657,-0.799 3.414,-1.527 5.174,-2.01 0.023,-0.006 0.05,-0.013 0.075,-0.019 2.337,-0.698 5.427,-1.371 8.76,-1.421 l 0.298,0.234 0.634,0.476 0.16,0.12 8.913,6.685 c 0.596,0.804 0.28,0.736 -0.063,0.566 -2.234,-1.414 -4.597,-2.364 -6.801,-2.868 -3.809,-0.876 -7.127,-0.465 -8.226,-0.174 -1.672,0.426 -5.6,1.352 -9.757,4.225 -2.839,1.962 -5.716,4.757 -7.474,9.64 -0.816,2.262 -1.57,4.96 -1.628,8.236 -0.068,4.223 1.186,8.68 2.635,11.814 2.218,4.772 5.581,8.047 9.102,9.859 4.002,2.054 8.158,2.305 10.222,2.344 2.398,0.044 5.27,-0.347 7.949,-1.371 2.069,-0.784 4.341,-2.029 6.217,-3.938 C -2.597,24.203 0.727,16.907 1.085,12.498 1.526,7.136 0.81,3.028 -0.567,-0.232 -0.745,-0.949 0,0 0,0" /></g><g
           transform="translate(525.5967,393.1867)"
           id="g408"><path
             id="path410"
             style="fill:#1d1d1d;fill-opacity:1;fill-rule:nonzero;stroke:none"
             d="m 0,0 c 0.61,0.878 1.246,2.318 2.822,4.2 1.184,1.415 2.706,3.171 6.328,4.66 0.664,0.272 1.785,0.62 2.566,0.863 11.129,3.511 26.821,-8.098 27.184,-8.384 0.37,-0.292 0.656,-0.432 0.878,-0.257 0,0 1.693,2.317 1.475,2.789 -0.131,0.28 -2.42,3.98 -8.856,8.426 -3.636,2.509 -7.666,5.393 -13.815,5.346 C 3.181,17.535 -0.568,2.861 -0.723,2.241 -0.907,1.518 -1.159,-1.663 0,0" /></g><g
           transform="translate(595.3877,416.217)"
           id="g412"><path
             id="path414"
             style="fill:#1d1d1d;fill-opacity:1;fill-rule:nonzero;stroke:none"
             d="m 0,0 c -2.551,-0.142 -5.455,-0.365 -8.651,-1.358 -13.5,-4.215 -18.844,-13.539 -18.844,-13.539 -0.679,-0.549 0.741,-1.834 1.038,-2.178 0.276,-0.32 0.548,-0.543 1.139,0.048 4.088,4.084 8.772,6.649 13.621,8.375 1.504,0.534 3.216,0.907 4.676,1.271 2.482,0.621 5.709,0.885 8.689,0.993 3.558,0.13 5.445,-0.246 5.445,-0.246 6.117,-1.167 11.209,-8.381 10.787,-6.908 -1.071,3.762 -2.662,6.683 -4.578,8.877 l -0.004,0 C 12.209,-3.382 10.58,-2.057 8.375,-1.136 6.173,-0.209 3.385,0.183 0,0" /></g><g
           transform="translate(619.1445,307.4104)"
           id="g416"><path
             id="path418"
             style="fill:#1d1d1d;fill-opacity:1;fill-rule:nonzero;stroke:none"
             d="M 0,0 C -2.02,0.15 -4.039,0.872 -5.31,2.606 -5.843,3.333 -8.787,7.77 -7.488,8.375 -6.486,8.288 -5.716,6.316 -5.349,5.493 -4.263,3.09 -2.906,1.729 -0.145,1.729 0.577,1.729 2.824,2.131 2.902,1.153 2.975,0.052 0.684,-0.054 0,0 m 2.174,4.939 c -1.023,0.053 -1.861,-0.116 -2.694,0 -1.243,0.178 -3.867,3.483 -4.815,5.257 -0.01,0 -0.02,10e-4 -0.03,10e-4 -0.27,0 -0.486,-0.026 -0.659,-0.078 C -6.406,10.008 -6.74,9.973 -7.035,9.943 -7.182,9.928 -7.361,9.909 -7.446,9.888 -7.499,9.858 -7.602,9.792 -7.679,9.742 -7.755,9.693 -7.834,9.642 -7.918,9.589 -8.211,9.407 -8.412,9.142 -8.741,8.688 -8.992,8.342 -9.277,7.95 -9.663,7.575 L -9.786,7.457 c -0.231,-0.221 -0.507,-0.484 -0.849,-0.721 0.131,-0.467 0.253,-0.957 0.363,-1.474 l 0.195,-0.598 c 0,0 2.45,-6.227 8.437,-7.394 4.999,-0.974 6.609,2.195 7.099,3.682 0.164,0.489 0.164,3.818 -3.285,3.987" /></g><g
           transform="translate(524.7334,404.882)"
           id="g420"><path
             id="path422"
             style="fill:#1d1d1d;fill-opacity:1;fill-rule:nonzero;stroke:none"
             d="m 0,0 c 0.61,0.878 1.37,2.965 2.946,4.846 0.14,0.167 0.27,0.329 0.396,0.487 3.963,4.339 9.552,4.483 9.552,4.483 0.049,10e-4 0.101,0.005 0.151,0.005 12.602,-0.053 21.608,-6.551 25.332,-9.5 1.019,-0.809 1.697,-1.274 1.823,-1.347 0.577,-0.37 0.612,0 0.612,0 0,0 2.292,2.793 2.438,3.034 0.146,0.239 0.263,0.535 0.146,0.723 -0.247,0.384 -2.953,4.394 -7.477,7.764 C 31.686,13.638 24.687,16.13 19.771,15.984 13.874,15.815 9.984,14.336 7.041,12.615 3.197,10.364 1.302,7.195 0.588,5.738 L 0.583,5.739 C -0.436,3.581 -0.676,2.427 -0.723,2.241 -0.907,1.518 -1.159,-1.663 0,0" /></g><g
           transform="translate(668.04,368.3786)"
           id="g424"><path
             id="path426"
             style="fill:#1d1d1d;fill-opacity:1;fill-rule:nonzero;stroke:none"
             d="m 0,0 c -13.658,17.688 -31.99,31.506 -52.568,39.831 0.846,-1.963 1.45,-4.112 1.798,-6.432 42.932,-19.019 71.666,-62.077 71.666,-110.093 0,-66.367 -53.994,-120.36 -120.361,-120.36 -66.366,0 -120.36,53.993 -120.36,120.36 0,27.558 9.721,54.794 27.371,76.689 12.104,15.016 27.399,26.894 44.394,34.719 l 0.096,1.487 c -0.05,1.72 0.704,3.512 0.787,3.847 0.064,0.268 0.141,0.547 0.227,0.833 10e-4,0.006 0.003,0.012 0.004,0.017 0.01,0.043 0.023,0.089 0.034,0.133 -18.8,-8.122 -36.371,-21.319 -49.617,-37.751 -18.398,-22.823 -28.53,-51.226 -28.53,-79.974 0,-69.253 56.341,-125.594 125.594,-125.594 69.253,0 125.594,56.341 125.594,125.594 C 26.129,-48.657 17.095,-22.137 0,0" /></g></g></g></g></svg>